<?xml version="1.0" standalone="no"?>
<!DOCTYPE svg PUBLIC "-//W3C//DTD SVG 1.1//EN" "http://www.w3.org/Graphics/SVG/1.1/DTD/svg11.dtd" >
<svg xmlns="http://www.w3.org/2000/svg">
<metadata></metadata>
<defs>
<font id="palatinoregular" horiz-adv-x="1024" >
<font-face units-per-em="2048" ascent="1638" descent="-410" />
<missing-glyph horiz-adv-x="512" />
<glyph horiz-adv-x="0" />
<glyph horiz-adv-x="0" />
<glyph unicode="&#xd;" horiz-adv-x="512" />
<glyph horiz-adv-x="0" />
<glyph unicode="&#x9;" horiz-adv-x="512" />
<glyph horiz-adv-x="0" />
<glyph unicode=" "  horiz-adv-x="512" />
<glyph unicode="&#x09;" horiz-adv-x="512" />
<glyph unicode="&#xa0;" horiz-adv-x="512" />
<glyph unicode="!" horiz-adv-x="569" d="M141 109q0 50 35 85t85 35t84.5 -35t34.5 -85q0 -49 -35 -84t-84 -35q-50 0 -85 35t-35 84zM156 1336v20q85 40 156 80h67v-106l-53 -569l-25 -315l-55 -50l-19 10q-8 202 -47 593q-16 163 -20 231q-4 56 -4 106z" />
<glyph unicode="&#x22;" horiz-adv-x="760" d="M104 1375q0 35 25 55.5t65 20.5t65 -20.5t25 -55.5q0 -10 -8 -60l-61 -355h-42l-60 355q-9 50 -9 60zM475 1375q0 35 25 55.5t65 20.5t65 -20.5t25 -55.5q0 -10 -9 -60l-60 -355h-42l-61 355q-8 50 -8 60z" />
<glyph unicode="#" horiz-adv-x="1241" d="M111 378l23 131h162l66 427h-165l23 131h163l55 354h82l-57 -354h277l56 354h81l-57 -354h183l-23 -131h-181l-66 -427h184l-22 -131h-183l-58 -378h-81l60 378h-277l-60 -378h-81l60 378h-164zM375 509h279l65 427h-277z" />
<glyph unicode="$" d="M57 57q17 116 30 304h62l2 -129q1 -24 3 -58q73 -70 140 -98q65 -27 147 -27h6v566q-153 20 -214 43q-80 31 -128 98t-48 183q0 172 99 285t291 144q-1 95 -4 135h92q-3 -26 -4 -131q134 -12 212 -33t121 -49l5 -13q-12 -44 -17 -86l-13 -162h-56q-3 97 -17 173 q-43 46 -98.5 70t-136.5 27v-528q184 -23 262.5 -55.5t121.5 -102t43 -173.5q0 -115 -51 -216.5t-139 -159t-237 -87.5q2 -143 6 -207h-94q2 27 4 203q-121 4 -207.5 23t-182.5 61zM214 1013q0 -118 66 -171.5t167 -59.5v513q-92 -10 -147 -60q-86 -78 -86 -222zM531 54 q72 3 125 35q72 43 106.5 116t34.5 156q0 120 -76 179q-55 42 -190 65v-551z" />
<glyph unicode="%" horiz-adv-x="1720" d="M105 971q0 173 119.5 320.5t286.5 147.5q54 0 102.5 -24.5t75.5 -69.5q26 -30 84 -50.5t129 -20.5q87 0 185 72t158 167q10 -3 21 -5.5t20 -2.5h15q21 0 38 4q-22 -26 -42.5 -57t-116.5 -190.5t-355 -596.5t-361.5 -610t-185.5 -315h-88l971 1611q-53 -60 -121 -95 t-133 -35q-68 0 -122 19t-79 47q22 -44 22 -104q0 -81 -21.5 -151.5t-70 -152.5t-124.5 -130t-161 -48q-109 0 -177.5 70.5t-68.5 199.5zM236 912q0 -85 35 -130t99 -45t114 44t93.5 130t65.5 167.5t22 143.5q0 78 -35.5 131.5t-99.5 53.5q-69 0 -126.5 -52.5t-100.5 -162 t-55 -165t-12 -115.5zM904 199q0 179 122.5 327t283.5 148q103 0 167 -71t64 -170q0 -79 -20 -156.5t-67 -152t-126.5 -130.5t-173.5 -56q-117 0 -183.5 71.5t-66.5 189.5zM1029 152q0 -84 34.5 -131.5t95.5 -47.5q66 0 124.5 58.5t97 139.5t60.5 159t22 133q0 77 -36 121.5 t-103 44.5q-72 0 -128.5 -60t-98.5 -150q-37 -82 -52.5 -144t-15.5 -123z" />
<glyph unicode="&#x26;" horiz-adv-x="1593" d="M92 371q0 140 79 245.5t235 191.5q-60 144 -60 265q0 59 24 115q16 40 27.5 53.5t104.5 93.5q56 47 88 62q42 20 93 20q86 0 134.5 -50t48.5 -139q0 -94 -68.5 -198t-222.5 -208q70 -137 190.5 -287.5t223.5 -233.5q102 115 102 243q0 75 -22 117q-14 26 -42 32 q-18 5 -159 7l-9 13l65 95q66 -9 164 -9q63 0 246 7q51 2 181 2q-17 -74 -23 -140q-122 20 -253 20h-34q12 -46 12 -87q0 -91 -39.5 -173.5t-127.5 -173.5q182 -131 359 -131q27 0 46.5 6.5t69.5 34.5l13 -52q-73 -52 -87 -63q-21 -16 -87 -70q-36 -7 -71 -7q-90 0 -151 26 q-107 40 -218 131q-128 -94 -216 -126t-198 -32q-136 0 -229.5 55.5t-141 152t-47.5 192.5zM268 440q0 -88 47 -174t126.5 -132.5t167.5 -46.5q127 0 250 93q-134 144 -182 202q-66 79 -120.5 158t-117.5 190q-91 -66 -131 -133.5t-40 -156.5zM490 1132q0 -92 52 -242 q91 65 139.5 142.5t48.5 142.5q0 57 -33 94.5t-75 37.5q-37 0 -68 -17.5t-47.5 -56t-16.5 -101.5z" />
<glyph unicode="'" horiz-adv-x="426" d="M123 1375q0 35 25 55.5t65 20.5t65 -20.5t25 -55.5q0 -10 -8 -60l-61 -355h-42l-60 355q-9 50 -9 60z" />
<glyph unicode="(" horiz-adv-x="682" d="M121 630q0 172 37.5 313t100.5 255.5t149 218.5t165 161l40 -51q-160 -173 -238.5 -389.5t-78.5 -500.5q0 -308 73.5 -517t243.5 -416l-49 -44q-213 180 -328 428t-115 542z" />
<glyph unicode=")" horiz-adv-x="682" d="M121 -289q160 173 238.5 390t78.5 501q0 308 -73.5 517t-243.5 416l49 43q213 -180 328 -428t115 -542q0 -171 -37.5 -312t-100.5 -256t-149 -218.5t-164 -161.5z" />
<glyph unicode="*" horiz-adv-x="797" d="M86 1240l29 90l32 17l243 -123l-44 267l25 24h96l24 -24l-42 -268l243 122l30 -17l30 -90l-15 -31l-267 -45l193 -194l-7 -34l-77 -55l-34 5l-123 243l-125 -242l-33 -4l-78 55l-6 34l191 193l-269 44z" />
<glyph unicode="+" horiz-adv-x="1241" d="M104 549v91h473v473h92v-473h473v-91h-473v-473h-92v473h-473z" />
<glyph unicode="," horiz-adv-x="512" d="M-14 -280q76 126 108 195.5t50 137.5q9 34 24 148l108 27q22 7 96 33l26 -28q-124 -289 -302 -499l-85 -39z" />
<glyph unicode="-" horiz-adv-x="682" d="M45 438v14l45 134h535v-15l-48 -133h-532z" />
<glyph unicode="." horiz-adv-x="512" d="M136 109q0 50 35 85t85 35t84.5 -35t34.5 -85q0 -49 -35 -84t-84 -35q-50 0 -85 35t-35 84z" />
<glyph unicode="/" horiz-adv-x="1241" d="M277 -238l579 1835h105l-577 -1835h-107z" />
<glyph unicode="0" d="M62 619q0 285 41 440t149 256t274 101q84 0 155.5 -28.5t117 -72t77 -107t44.5 -127.5q30 -146 30 -318q0 -224 -35 -384q-20 -91 -57 -166.5t-88 -128.5t-123 -84.5t-162 -31.5q-109 0 -187 46t-124 118q-64 103 -88 235.5t-24 251.5zM234 677q0 -144 19 -282.5 t60 -224.5q28 -58 82 -95t121 -37q114 0 175 95q88 136 88 541q0 174 -18.5 312.5t-61.5 227.5q-28 57 -78.5 93.5t-121.5 36.5q-78 0 -139.5 -50t-93.5 -181.5t-32 -435.5z" />
<glyph unicode="1" d="M125 1226l10 10q107 31 233 85q186 79 239 106l26 -10q-16 -458 -16 -526v-371q0 -222 5 -336q3 -67 16.5 -84.5t40 -25t173.5 -13.5v-61q-253 8 -317 8q-48 0 -339 -8v61q152 9 175.5 14.5t35 16.5t16.5 31q8 31 14 179q6 147 6 223v394q0 241 -1 302q0 27 -7 34 q-4 4 -11 4q-9 0 -46 -16q-170 -76 -225 -104l-18 5z" />
<glyph unicode="2" d="M34 0v56q31 39 112 122l223 232q26 27 127 141q76 87 119 158.5t63 139t20 128.5q0 104 -58 180q-75 101 -218 101q-80 0 -140 -26t-80.5 -57.5t-60.5 -180.5h-60q24 134 34 276q63 60 105.5 86t104.5 41.5t135 15.5q131 0 221 -44.5t144 -132.5t54 -199 q0 -120 -61.5 -236.5t-255.5 -309.5l-171 -170q-93 -93 -141 -148h439q132 0 259 13l7 -8q-6 -38 -6 -89q0 -46 6 -78l-7 -11q-71 4 -162 6q-204 4 -273 4q-87 0 -293 -4q-113 -2 -186 -6z" />
<glyph unicode="3" d="M34 327l55 21q63 -168 144.5 -227.5t212.5 -59.5q96 0 161.5 38t106.5 121t41 187q0 139 -71 213.5t-191 74.5q-40 0 -74.5 -8t-102.5 -36l-12 10l22 109q80 -5 107 -5q122 0 188.5 85.5t66.5 193.5q0 97 -70.5 165t-178.5 68q-65 0 -125 -26t-106 -70q-18 -38 -57 -143 h-62l62 240q67 70 126 98q97 44 212 44q169 0 267.5 -89t98.5 -216q0 -86 -51 -169.5t-173 -170.5q113 -15 178.5 -51.5t100.5 -103t35 -148.5q0 -119 -75 -234t-211 -190t-295 -75q-70 0 -128 13t-132 45q-14 85 -25 131q-7 29 -45 165z" />
<glyph unicode="4" d="M12 421q77 145 206 355q188 306 375 589q11 5 54 23q76 30 87 34l25 -12q-7 -120 -9 -296q-5 -371 -5 -407v-207q136 1 223 7q-3 -50 -3 -66l3 -74q-102 6 -172 6h-51v-67q0 -168 15 -205q6 -15 24 -24q38 -17 184 -18v-59q-216 8 -332 8q-125 0 -315 -8v59 q156 3 183 8.5t38 17.5q14 17 20 61q9 74 9 153v74h-219q-181 0 -323 -6zM144 500h427l9 711q-109 -157 -246.5 -384t-189.5 -327z" />
<glyph unicode="5" d="M29 289l49 29q90 -164 111 -183.5t94 -45.5t149 -26q100 0 175.5 42t117 125.5t41.5 201.5q0 174 -94.5 258t-223.5 84q-76 0 -138 -29q-47 -23 -112 -94l-41 12l12 247q2 56 2 91v178q0 80 -5 160q-2 31 -3 50l13 10q163 -12 342 -12q152 0 364 12l5 -10q-7 -51 -7 -92 q0 -20 2 -69l-10 -6q-139 9 -416 9q-102 0 -193 -3q-15 -138 -20 -416q80 58 144 80.5t142 22.5q116 0 212.5 -49.5t148.5 -142.5t52 -204q0 -173 -118 -322q-178 -226 -478 -226q-66 0 -112.5 11.5t-101.5 39.5q-23 68 -37 104z" />
<glyph unicode="6" d="M70 513q0 182 56.5 336t154.5 265t233.5 194.5t276.5 117.5l73 -35v-12q-111 -25 -232 -99t-198 -168.5t-114.5 -194t-48.5 -228.5q58 41 86 62q72 56 92.5 67t56 19.5t85.5 8.5q174 0 269 -99t95 -287q0 -128 -47 -223q-48 -97 -104.5 -147t-130 -84.5t-180.5 -34.5 q-183 0 -303 138.5t-120 403.5zM252 437q0 -79 18 -157q11 -46 30.5 -90t51 -79t75 -54t94.5 -19q69 0 128.5 37.5t96 122t36.5 193.5q0 105 -35.5 183.5t-98 115.5t-132.5 37q-88 0 -172 -59q-60 -42 -76 -88.5t-16 -142.5z" />
<glyph unicode="7" d="M94 971l5 263q0 65 -5 164l20 10q80 -7 219 -13q180 -7 236 -7q125 0 445 14v-60l-144 -255q-46 -83 -222 -408q-123 -228 -215 -424q-70 -148 -110 -255q-57 5 -96 5q-42 0 -92 -5l-21 21q35 52 198 309q53 85 264 428q86 140 232 396q13 22 36 66l-10 10h-310 q-93 0 -193 -3q-100 -4 -122 -13q-13 -5 -19 -13l-8 -12l-29 -218h-59z" />
<glyph unicode="8" d="M64 332q0 121 72 219t200 157v9q-123 65 -174.5 143.5t-51.5 179.5q0 155 115 262.5t303 107.5q108 0 192.5 -37t127.5 -105t43 -148q0 -61 -26.5 -120t-85.5 -115q-45 -42 -133 -97v-9q126 -60 172 -94q62 -45 96 -110t34 -150q0 -112 -63.5 -221.5t-178 -170 t-244.5 -60.5q-113 0 -206.5 46.5t-142.5 129t-49 183.5zM207 348q0 -92 35 -162t103.5 -107t147.5 -37q82 0 152 38t106.5 107.5t36.5 155.5q0 74 -31 125t-106.5 97t-233.5 116q-114 -70 -162 -147t-48 -186zM263 1116q0 -99 59 -155t247 -148q102 65 142.5 129t40.5 151 q0 72 -29.5 130.5t-86 88.5t-128.5 30q-112 0 -178.5 -62.5t-66.5 -163.5z" />
<glyph unicode="9" d="M52 934q0 214 129 346.5t325 132.5q125 0 224 -61.5t155.5 -179.5t56.5 -306q0 -232 -85 -406q-103 -212 -305 -349q-169 -115 -353 -143l-66 32v19q180 43 317.5 136.5t218.5 253.5q64 126 80 294q-45 -31 -106 -85q-36 -33 -55 -44q-29 -19 -66 -30q-48 -14 -104 -14 q-160 0 -263 108t-103 296zM225 999q0 -85 29.5 -169.5t93.5 -130t149 -45.5q117 0 189.5 79t72.5 238q0 157 -68.5 265t-199.5 108q-114 0 -190 -86.5t-76 -258.5z" />
<glyph unicode=":" horiz-adv-x="512" d="M136 109q0 50 35 85t85 35t84.5 -35t34.5 -85q0 -49 -35 -84t-84 -35q-50 0 -85 35t-35 84zM136 816q0 50 35 85t85 35t84.5 -35t34.5 -85q0 -49 -35 -84t-84 -35q-50 0 -85 35t-35 84z" />
<glyph unicode=";" horiz-adv-x="512" d="M21 -282q76 126 108 195.5t50 138.5q9 34 24 148l108 27q22 6 96 33l26 -28q-124 -290 -302 -499l-85 -39zM172 816q0 50 35 85t85 35t84.5 -35t34.5 -85q0 -49 -35 -84t-84 -35q-50 0 -85 35t-35 84z" />
<glyph unicode="&#x3c;" horiz-adv-x="1241" d="M40 490v81l1101 461l46 -77l-1001 -422l1022 -397l-74 -79z" />
<glyph unicode="=" horiz-adv-x="1241" d="M76 302v91h1094v-91h-1094zM76 645v91h1094v-91h-1094z" />
<glyph unicode="&#x3e;" horiz-adv-x="1241" d="M32 953l77 79l1094 -433v-81l-1101 -461l-49 77l1006 425z" />
<glyph unicode="?" horiz-adv-x="909" d="M89 1128l78 237q64 39 123.5 57t132.5 18q112 0 201 -41.5t135.5 -117.5t46.5 -165q0 -68 -25.5 -130.5t-71 -114.5t-153 -148.5t-142.5 -156.5q-24 -40 -24 -78q0 -27 12 -53q7 -18 34 -50l-42 -32q-90 62 -90 158q0 52 26.5 104t126.5 164t136 184q25 52 25 107 q0 95 -70 162t-180 67q-32 0 -64 -6.5t-64 -20.5q-20 -21 -33 -43q-22 -37 -58 -117l-53 6zM285 109q0 50 35 85t85 35t85 -35t35 -85q0 -49 -35 -84t-85 -35q-49 0 -84.5 35t-35.5 84z" />
<glyph unicode="@" horiz-adv-x="1530" d="M47 621q0 266 113 447.5t298 269.5t400 88q299 0 463 -158t164 -393q0 -216 -134 -385.5t-285 -169.5q-76 0 -123 45t-47 156l-32 -50q-49 -68 -105.5 -105.5t-130.5 -37.5q-120 0 -175.5 82t-55.5 224q0 99 47 218.5t141 205t226 85.5q139 0 182 -106l14 81l140 28 l-104 -496q-14 -66 -20.5 -103.5t-6.5 -63.5q0 -38 20 -69t77 -31q48 0 115.5 59t117.5 172.5t50 264.5q0 241 -144 367.5t-389 126.5q-184 0 -341.5 -79.5t-255.5 -249.5t-98 -426q0 -261 161.5 -416.5t407.5 -155.5q109 0 202 25.5t170.5 69t160.5 107.5l-13 -63 q-92 -64 -162 -104t-161.5 -66.5t-204.5 -26.5q-281 0 -481.5 165.5t-200.5 467.5zM551 611q0 -121 34.5 -167.5t101.5 -46.5q80 0 137 94.5t87 208.5t39 174.5t9 93.5q0 42 -31.5 83t-101.5 41q-63 0 -130.5 -73t-98 -161t-38.5 -146.5t-8 -100.5z" />
<glyph unicode="A" horiz-adv-x="1593" d="M35 0v68q79 1 98.5 6.5t36 21t47.5 80.5q18 37 130 281l250 564q41 93 175 414h65l427 -1003q104 -244 138 -306q19 -35 41.5 -46t101.5 -12v-68q-156 10 -218 10l-322 -10v68q112 2 136 7t32.5 14.5t8.5 23.5q0 22 -14 57l-123 306h-579l-109 -257q-29 -69 -29 -101 q0 -14 8 -23q11 -13 34 -18q37 -8 130 -9v-68q-169 9 -253 9q-97 0 -212 -9zM500 561h505l-250 603z" />
<glyph unicode="B" horiz-adv-x="1251" d="M27 1358v63q33 -2 83 -2l208 -5l368 9q146 0 225 -30t123.5 -97.5t44.5 -150.5q0 -66 -26.5 -124t-71 -100.5t-99 -69t-142.5 -48.5q117 -11 189 -32.5t120.5 -64t73.5 -103.5t25 -136q0 -148 -89.5 -260.5t-230.5 -166.5q-105 -40 -249 -40l-290 8q-47 0 -179 -8v47 q62 31 69 38.5t11 26.5q6 30 11 128q4 97 4 148v603q0 98 -6 230q-4 83 -14 103q-7 13 -21 19q-33 14 -137 15zM395 370q0 -55 3 -267q75 -18 158 -18q132 0 213 40.5t124.5 122.5t43.5 188q0 105 -41 176.5t-122.5 106t-268.5 34.5q-43 0 -110 -4v-379zM395 831 q57 -3 100 -3q124 0 191.5 19t104.5 50t61.5 84t24.5 124q0 125 -79.5 180.5t-232.5 55.5q-85 0 -161 -15q-9 -83 -9 -257v-238z" />
<glyph unicode="C" horiz-adv-x="1452" d="M71 712q0 319 222.5 528.5t607.5 209.5q91 0 168.5 -10.5t189 -40t136.5 -34.5q-22 -55 -33 -108q-16 -85 -22 -197h-63l-1 118q-10 98 -108.5 146t-288.5 48q-142 -2 -241 -36.5t-174.5 -109t-123.5 -189t-49 -287.5q0 -303 185 -487.5t489 -184.5q137 0 254 38 q80 26 159 82l17 -21l-39 -93q-117 -59 -229 -85.5t-244 -26.5q-155 0 -288 39t-232.5 111.5t-162.5 162.5t-96 195.5t-33 231.5z" />
<glyph unicode="D" horiz-adv-x="1585" d="M26 1358v63q146 -6 258 -6q86 0 235 4q148 4 230 4q245 0 394 -62.5t253 -209.5t104 -359q0 -152 -49 -285t-133 -232.5t-180 -157.5t-201.5 -87.5t-289.5 -29.5q-61 0 -165 4q-136 4 -178 4q-61 0 -214 -8v48q58 33 97 60q6 68 10 189q7 206 7 286v408q0 98 -6 230 q-4 83 -14 103q-7 13 -21 19q-33 14 -137 15zM391 601l3 -310q1 -71 6 -182q110 -19 232 -19q126 0 222.5 22t165 62t132.5 118t98.5 199.5t34.5 251.5q0 186 -66.5 319.5t-200.5 204.5t-368 71q-123 0 -250 -19q-3 -49 -5 -174l-4 -145v-399z" />
<glyph unicode="E" horiz-adv-x="1251" d="M50 1357v64l285 -6l302 5q217 3 315 3q99 0 187 -11q-16 -57 -22 -99q-2 -9 -18 -208h-63v14q0 94 -13 172q-55 23 -121 31q-112 14 -224 14q-24 0 -107 -4t-119 -7q-4 -111 -6 -208l-4 -338q117 -6 215 -6q119 0 203 11q32 4 41 16t16 82l6 70h60v-19l-5 -208l5 -233 h-70l-3 68q-2 74 -13.5 92t-43.5 25q-57 12 -221 12q-67 0 -190 -5q-5 -100 -5 -297q0 -185 5 -281q144 -11 323 -11q127 0 181 8t100 27q12 31 24 84q22 89 29 134h66q-26 -202 -26 -335q-86 -13 -209 -13l-597 8q-13 0 -262 -8v63q105 1 138 16q14 6 20 19q10 20 14 105 q6 132 6 228v511q0 136 -3 266q-3 95 -14.5 112.5t-37 26t-144.5 10.5z" />
<glyph unicode="F" horiz-adv-x="1139" d="M44 0v64q118 2 144 10.5t36 23.5q12 20 15 97q1 21 4 284v463q0 136 -3 266q-3 95 -14.5 112.5t-37 26t-144.5 10.5v64q152 -6 258 -6q75 0 269 4t262 4q73 0 134 -1q60 -2 109 -6q-25 -85 -32 -303h-63q-9 121 -25 186q-52 18 -128.5 26.5t-177.5 8.5t-209 -12 q-6 -54 -8 -101q-1 -27 -5 -229v-222q112 -3 198 -3q127 0 203 13q29 5 37.5 16.5t18.5 84.5l8 62h63l-7 -228l7 -245h-63l-7 64q-11 109 -16 117q-8 14 -38 21q-57 13 -258 13q-71 0 -146 -4v-202q0 -136 4 -265q2 -95 13.5 -113t37.5 -26.5t144 -10.5v-64q-127 8 -253 8 q-113 0 -330 -8z" />
<glyph unicode="G" horiz-adv-x="1563" d="M64 700q0 195 70.5 331.5t176 224.5t210.5 130q161 64 398 64q111 -1 233.5 -25.5t276.5 -67.5q-15 -51 -23 -100t-21 -201h-61l-5 114q-1 26 -2 42t-13 41q-27 36 -86 65q-102 39 -168.5 52t-158.5 13q-190 0 -329 -81t-210.5 -232t-71.5 -330q0 -197 83.5 -354.5 t224 -241t327.5 -83.5q88 0 170.5 17t139.5 47q9 40 9 128v111q0 88 -9 103t-48.5 22.5t-181.5 11.5v61l312 -7q91 0 186 7l6 -48l-75 -44q-12 -107 -12 -197t12 -195q-152 -55 -249 -74q-171 -33 -324 -33q-231 0 -411 90.5t-278 253.5t-98 385z" />
<glyph unicode="H" horiz-adv-x="1704" d="M49 0v64q118 2 144 10.5t36 23.5q12 20 15 97q1 21 4 284v463q0 136 -3 266q-3 95 -14.5 112.5t-37 26t-144.5 10.5v64l306 -6l282 6v-64q-119 -2 -144.5 -10.5t-35.5 -23.5q-12 -20 -15 -97q-1 -20 -4 -284v-139q197 -7 480 -7q217 0 347 7v139q0 136 -4 266 q-3 95 -14.5 112.5t-37 26t-144.5 10.5v64q215 -6 295 -6q30 0 292 6v-64q-118 -2 -144 -10.5t-35 -23.5q-13 -20 -16 -97q-1 -20 -4 -284v-463q0 -136 4 -265q2 -95 13.5 -113t37.5 -26.5t144 -10.5v-64q-193 8 -316 8q-131 0 -271 -8v64q119 2 144.5 10.5t35.5 23.5 q13 20 15 97q1 21 5 284v228q-280 6 -425 6q-158 0 -402 -6v-228q0 -136 3 -265q3 -95 14.5 -113t37 -26.5t144.5 -10.5v-64q-135 9 -278 9q-156 0 -310 -9z" />
<glyph unicode="I" horiz-adv-x="690" d="M47 0v64q118 2 144 10.5t36 23.5q12 20 15 97q1 21 4 284v463q0 136 -3 266q-3 95 -14.5 112.5t-37 26t-144.5 10.5v64q191 -7 295 -7q100 0 294 7v-64q-119 -2 -144.5 -10.5t-35.5 -23.5q-12 -20 -15 -97q-1 -20 -4 -284v-463q0 -136 3 -265q3 -95 14.5 -113t37 -26.5 t144.5 -10.5v-64q-213 8 -280 8z" />
<glyph unicode="J" horiz-adv-x="682" d="M-24 -230l19 13q29 -21 53.5 -29.5t54.5 -8.5q54 0 83 21.5t42 67t13 239.5v869q0 136 -4 266q-2 95 -13.5 112.5t-37.5 26t-144 10.5v64q158 -6 296 -6q146 0 297 6v-64q-118 -2 -144 -10.5t-35 -23.5q-13 -20 -16 -97q0 -20 -4 -284v-718q0 -164 -28 -259t-94.5 -180.5 t-144.5 -129.5t-151 -44q-20 0 -42 5l3 69v14q0 23 -3 71z" />
<glyph unicode="K" horiz-adv-x="1487" d="M51 0v64q118 2 144 10.5t36 23.5q12 20 15 97q1 21 4 284v463q0 136 -3 266q-3 95 -14.5 112.5t-37 26t-144.5 10.5v64q194 -6 297 -6q102 0 288 6v-64q-118 -2 -144 -10.5t-35 -23.5q-13 -20 -16 -97q0 -20 -4 -284v-206q54 29 128 101l126 122l223 223q129 129 159 166 v73q119 -4 187 -4q73 0 157 4v-65q-95 0 -128 -8t-65 -30q-64 -47 -196 -168l-399 -365l600 -562q145 -136 165 -148t77 -13v-62q-98 4 -131 4q-37 0 -156 -4q-23 23 -167 161l-103 99l-454 426l-23 -13v-194q0 -136 4 -265q2 -95 13.5 -113t37.5 -26.5t144 -10.5v-64 l-302 8q-31 0 -283 -8z" />
<glyph unicode="L" horiz-adv-x="1251" d="M37 1357v64q244 -8 302 -8q64 0 287 8v-64q-119 -2 -144.5 -10.5t-35.5 -23.5q-12 -20 -15 -97q-1 -20 -4 -284v-672q0 -105 4 -171q114 -7 226 -7q282 0 395 36q13 30 23 69l40 166h67q-22 -149 -43 -350q-41 -8 -65 -10q-52 -3 -160 -3l-592 8q-96 0 -195 -8v52 q62 29 79 46q10 9 14 23q9 28 12 120q4 137 4 163v538q0 136 -3 266q-3 95 -14.5 112.5t-37 26t-144.5 10.5z" />
<glyph unicode="M" horiz-adv-x="1937" d="M38 0v64q118 2 144 10.5t36 23.5q12 20 15 97q1 21 4 284v463q0 136 -3 266q-3 95 -14.5 112.5t-37 26t-144.5 10.5v64q105 -4 201 -4q97 0 186 4q88 -200 161 -351l379 -780l342 715q140 292 187 416q106 -4 179 -4q67 0 217 4v-64q-119 -2 -144.5 -10.5t-35.5 -23.5 q-13 -20 -15 -97q-1 -20 -5 -284v-463q0 -136 4 -265q3 -95 14.5 -113t37 -26.5t144.5 -10.5v-64q-202 9 -285 9q-67 0 -296 -9v64q119 2 145 10.5t35 23.5q13 20 15 97q1 21 5 284v734l-345 -722q-81 -169 -127 -272q-33 -75 -100 -238h-39q-13 38 -24 61l-68 145l-478 993 v-701q0 -136 4 -265q3 -95 14.5 -113t37 -26.5t144.5 -10.5v-64l-241 8z" />
<glyph unicode="N" horiz-adv-x="1702" d="M49 1358v63q167 -4 210 -4q73 0 145 4q85 -111 125 -164l207 -255l302 -364q145 -174 233 -274q56 -66 94 -104v731q0 98 -7 230q-4 83 -13 103q-7 13 -21 19q-33 14 -137 15v63q118 -4 239 -4q114 0 207 4v-63q-104 -1 -137 -15q-14 -6 -20 -20q-10 -19 -14 -105 q-6 -132 -6 -227v-481q0 -146 5 -545l-103 30l-24 5q-6 2 -11 6q-7 5 -38 40q-83 94 -122 142l-129 163l-709 847v-767q0 -98 7 -231q4 -83 13 -102q7 -14 21 -20q33 -14 137 -15v-63q-88 7 -194 7q-116 0 -252 -7v63q105 1 138 16q14 6 20 19q10 20 14 105q6 132 6 228v815 q0 33 -4 43q-8 18 -36 43q-18 16 -41.5 20.5t-104.5 5.5z" />
<glyph unicode="O" horiz-adv-x="1610" d="M49 701q0 158 47.5 292t157.5 241t249 161.5t318 54.5q165 0 300 -46.5t221.5 -123t136.5 -167.5q38 -68 60.5 -160t22.5 -197q0 -337 -226.5 -561t-571.5 -224q-157 0 -293 51t-230 151.5t-143 244t-49 283.5zM257 784q0 -95 19 -193t48 -169q48 -120 125.5 -201.5 t173 -120t211.5 -38.5q161 0 280 78.5t177.5 221t58.5 328.5q0 159 -42 293q-26 82 -69 148.5t-102.5 116t-154.5 83.5t-205 34q-159 0 -279 -71t-180.5 -205.5t-60.5 -304.5z" />
<glyph unicode="P" horiz-adv-x="1237" d="M54 0v64q118 2 144 10.5t36 23.5q12 20 15 97q1 21 4 284v463q0 136 -3 266q-3 95 -14.5 112.5t-37 26t-144.5 10.5v64q201 -6 318 -6q78 0 166 2l157 5q26 1 48 1q159 0 250 -35t142 -111.5t51 -174.5q0 -88 -42.5 -175t-123.5 -147.5t-169 -86.5q-60 -18 -136 -18 q-64 0 -138 14l-21 74q89 -20 140 -20q75 0 142.5 36.5t105 110t37.5 162.5q0 86 -36.5 155.5t-111 105.5t-180.5 36q-95 0 -204 -34q-9 -106 -9 -332v-504q0 -136 3 -265q3 -95 14.5 -113t37 -26.5t144.5 -10.5v-64q-185 8 -272 8q-34 0 -313 -8z" />
<glyph unicode="Q" horiz-adv-x="1610" d="M48 712q0 322 213 529.5t560 207.5q173 0 310 -49t227.5 -134.5t138.5 -188.5q65 -139 65 -319q0 -214 -89.5 -386.5t-261.5 -278.5t-388 -122q54 -9 97 -21.5t124 -45.5q182 -73 265.5 -94.5t143.5 -21.5q40 0 106 21v-51q-20 -15 -48 -30q-53 -30 -73.5 -44.5 t-40.5 -33.5q-14 0 -65 7t-104.5 21.5t-188.5 61.5q-255 87 -313 87q-20 0 -42 -7t-50 -22l-93 -54v65q164 128 260 162q-253 0 -409 83t-250 261t-94 397zM256 763q0 -98 26.5 -212t72 -200t112.5 -151t155 -102t206 -37q161 0 281 74t181 220t61 333q0 154 -41.5 285 t-112.5 214.5t-179 130t-240 46.5q-241 0 -381.5 -151t-140.5 -450z" />
<glyph unicode="R" horiz-adv-x="1368" d="M45 0v64q118 2 144 10.5t36 23.5q12 20 15 97q1 21 4 284v463q0 136 -3 266q-3 95 -14.5 112.5t-37 26t-144.5 10.5v64q39 -1 119 -3l192 -5q57 0 177 4q156 6 181 6q191 0 278.5 -34t135.5 -110.5t48 -166.5q0 -84 -45 -167t-130.5 -138t-222.5 -85q25 -35 118 -156 l252 -332q108 -139 126 -155q9 -7 18 -10q15 -5 66 -5v-64q-76 6 -133 6q-59 0 -145 -6q-65 75 -218 293q-85 121 -150 202q-105 134 -200 243l10 30q52 -3 79 -3q182 0 276 86t94 227q0 123 -81 195.5t-245 72.5q-103 0 -202 -31q-4 -54 -6 -101q-1 -14 -7 -291v-444 q0 -136 4 -265q2 -95 13.5 -113t37.5 -26.5t144 -10.5v-64q-142 8 -261 8q-96 0 -323 -8z" />
<glyph unicode="S" horiz-adv-x="1075" d="M56 1007q0 118 61.5 222.5t182 162.5t261.5 58q85 0 185.5 -22.5t187.5 -65.5q-14 -63 -20 -117.5t-9 -160.5h-68q-3 154 -9 168q-25 36 -68 65q-103 58 -215 58q-145 0 -231.5 -88.5t-86.5 -229.5q0 -85 31 -131.5t111 -74.5q55 -19 180 -35.5t225 -35.5 q94 -28 139 -66.5t74 -101t29 -146.5q0 -199 -165 -347t-427 -148q-198 0 -359 78q16 96 19 311h68q5 -146 16.5 -172.5t55.5 -56.5t118 -53.5t143 -23.5q101 0 186 46.5t124 122t39 161.5q0 66 -19.5 114t-59.5 77.5t-99 41.5q-37 6 -148 20t-189 31q-104 32 -153 75 t-79.5 113t-30.5 151z" />
<glyph unicode="T" horiz-adv-x="1255" d="M43 1421q109 -4 342 -10q189 -4 252 -4q68 0 315 6q179 4 261 8q-12 -112 -16 -331h-64l-8 96q-8 87 -11 99t-8.5 17t-16.5 8q-14 3 -100 8t-136 5h-122q-10 -96 -10 -259v-585q0 -136 3 -265q3 -95 14.5 -113t37 -26.5t144.5 -10.5v-64q-179 8 -269 8q-39 0 -312 -8v64 q119 2 145 10.5t35 23.5q13 20 16 97q0 21 4 284v583q0 42 -2 92l-6 169h-149q-129 0 -205 -10q-24 -3 -31 -13q-11 -17 -20 -109l-11 -101h-62q-1 239 -10 331z" />
<glyph unicode="U" horiz-adv-x="1593" d="M30 1357v64q163 -8 303 -8q142 0 282 8v-64q-118 -2 -144 -10.5t-35 -23.5q-13 -20 -16 -97q-1 -20 -4 -284v-370q0 -215 27.5 -283.5t87.5 -113.5q46 -34 124 -54.5t174 -20.5q112 0 199 27.5t130.5 67t65 88.5t31 134.5t9.5 216.5v308q0 136 -4 266q-2 95 -13.5 112.5 t-37.5 26t-144 10.5v64q165 -8 241 -8q69 0 249 8v-64q-119 -2 -144.5 -10.5t-35.5 -23.5q-12 -20 -15 -97q-1 -20 -4 -284v-335q0 -247 -34.5 -345t-126.5 -173q-69 -56 -177.5 -87t-240.5 -31q-154 0 -267 36.5t-172 96t-81 121.5q-28 82 -28 275v442q0 136 -3 266 q-3 95 -14.5 112.5t-37 26t-144.5 10.5z" />
<glyph unicode="V" horiz-adv-x="1479" d="M21 1357v64q181 -8 267 -8q81 0 275 8v-71q-122 -2 -141.5 -5t-27 -11.5t-7.5 -19.5t14 -52q43 -133 75 -214l313 -790l261 655q57 141 109 307q22 71 22 88q0 24 -26 32q-20 7 -154 17v64q151 -6 227 -6q78 0 215 6v-64q-76 -3 -91 -10t-28 -28q-9 -15 -74 -162 l-312 -768l-77 -197q-24 -59 -39 -102t-33 -100h-101q-30 87 -125 336l-340 841q-54 134 -67 155q-9 13 -25 19q-22 10 -110 16z" />
<glyph unicode="W" horiz-adv-x="2048" d="M23 1361v60q168 -8 254 -8q77 0 260 8v-60q-132 -5 -151 -15q-13 -7 -13 -28q0 -26 12 -89q33 -179 44 -227l157 -693l247 615q97 242 191 511h64q92 -284 165 -487l235 -652l170 597q45 160 84 333q18 79 18 91q0 21 -17.5 30.5t-159.5 13.5v60q154 -7 214 -7 q62 0 214 7v-60q-69 -1 -92 -14t-38 -47t-84 -264l-103 -337q-15 -50 -63 -227l-129 -483h-102q-111 330 -172 496l-228 617l-199 -494l-125 -327q-26 -67 -44.5 -119.5t-59.5 -172.5h-101l-91 417l-193 823q-21 87 -40 103.5t-124 28.5z" />
<glyph unicode="X" horiz-adv-x="1366" d="M31 0v66q70 0 92.5 9.5t55.5 48.5t150 203l273 378l-177 301q-23 38 -91.5 136.5t-120.5 149.5q-22 20 -40.5 26t-112.5 6v58l292 48q38 -26 71 -68q47 -60 132 -207l168 -291q307 436 317 477v80q108 -4 148 -4t121 4v-61q-63 -3 -79 -7.5t-29 -12.5q-18 -12 -53 -53 t-129 -168t-173 -235l-75 -100l339 -548q66 -107 98 -142q15 -17 33 -22t84 -6v-66q-109 4 -147 4q-42 0 -149 -4q-60 90 -111 177l-263 449l-127 -180q-188 -280 -227 -374l-2 -72q-104 4 -140 4q-24 0 -128 -4z" />
<glyph unicode="Y" horiz-adv-x="1366" d="M23 1333v61l241 47q40 -14 55 -26.5t63 -76.5q71 -95 164 -259t198 -375q106 163 217 354l213 363h153v-27q-55 -61 -202 -265q-85 -118 -221 -343q-85 -139 -96 -170.5t-11 -59.5v-77q0 -136 3 -265q3 -95 14.5 -113t37 -26.5t144.5 -10.5v-64q-163 8 -282 8 q-114 0 -301 -8v64q118 2 144 10.5t35 23.5q13 20 16 97q1 21 4 284v117q-21 45 -41 81q-14 25 -102 172l-66 108q-78 128 -116 182q-73 104 -121 149q-26 25 -54.5 35t-88.5 10z" />
<glyph unicode="Z" horiz-adv-x="1366" d="M36 0v57l241 299l571 734q120 154 175 238h-339q-262 -3 -377 -19q-36 -6 -47.5 -18t-17.5 -61l-15 -141h-64q5 85 5 141q0 111 -5 191q44 2 318 2l374 -4l228 -4q82 0 217 6v-60q-104 -122 -154 -186l-834 -1073q28 0 214 -5q104 -2 198 -2q189 0 353 13q88 7 105.5 24 t30.5 90l24 142h63q-7 -80 -10 -152l-6 -202q-101 -10 -250 -10l-515 6l-188 2q-11 0 -223 -5q-39 -1 -72 -3z" />
<glyph unicode="[" horiz-adv-x="682" d="M167 -350q8 135 10 266t2 684q0 547 -3 750q-1 73 -9 186l12 15q127 -5 194 -5q61 0 204 5l9 -7v-57l-5 -7l-161 -12q-28 -3 -40 -11q-8 -6 -14 -16q-10 -20 -15.5 -105t-6.5 -427q-2 -369 -2 -528q0 -119 3 -292q2 -218 5.5 -257t7.5 -72q10 -21 18 -27q13 -10 40 -15 q12 -2 161 -6l9 -10v-52h-9q-140 -5 -203 -5q-69 0 -195 -5z" />
<glyph unicode="\" horiz-adv-x="1241" d="M233 1597h105l580 -1835h-105z" />
<glyph unicode="]" horiz-adv-x="682" d="M85 -298l9 10q148 4 158 6q30 4 45 16q9 8 14 25q12 40 15 179t3 387q0 255 -2 721q-1 211 -7 294t-16 102q-5 9 -14 15q-12 8 -41 12l-159 11l-5 7v57l9 7q143 -5 205 -5q66 0 193 5l12 -15q-8 -112 -9 -184q-3 -158 -3 -697v-309q0 -265 1 -357q2 -189 11 -339l-12 -10 q-126 5 -196 5q-62 0 -202 -5l-9 10v52z" />
<glyph unicode="^" horiz-adv-x="1241" d="M106 592l449 829h135l446 -829h-139l-374 690l-377 -690h-140z" />
<glyph unicode="_" d="M0 -208h1024v-120h-1024v120z" />
<glyph unicode="`" horiz-adv-x="682" d="M164 1388q0 32 23.5 54.5t61.5 22.5q24 0 46 -14q14 -9 48 -44l287 -296h-84l-310 189q-45 28 -58.5 46t-13.5 42z" />
<glyph unicode="a" d="M82 219q0 69 23.5 126t56.5 90.5t67 49.5q58 27 188.5 58t258.5 46v8q0 89 -23 140q-24 53 -81 87t-139 34q-59 0 -103.5 -16t-54.5 -27l-18 -36q-27 -60 -40 -94l-53 14q1 23 1 63q0 42 -1 67q127 83 208 112q62 21 139 21q114 0 192 -43t116 -123q26 -56 26 -153 l-4 -183v-298q0 -48 8 -69q6 -15 19 -22q10 -6 42 -8l65 -6v-57q-82 7 -144 7q-60 0 -160 -7l5 176q-204 -154 -242 -173.5t-96 -19.5q-121 0 -188.5 64.5t-67.5 171.5zM258 261q0 -74 41 -115.5t114 -41.5q67 0 132.5 38.5t130.5 115.5v270q-130 -22 -222 -49t-130 -56 q-23 -17 -40 -51q-26 -50 -26 -111z" />
<glyph unicode="b" horiz-adv-x="1133" d="M-22 1355v59q226 28 314 70q13 6 20 6t11 -4.5t4 -12.5q0 -7 -2 -20l-1 -33q-5 -179 -6 -305l-2 -156v-198l138 135q27 23 89 45t132 22q110 0 195 -51.5t130.5 -145.5t45.5 -208q0 -88 -26 -167t-67 -141q-30 -47 -51 -64l-146 -105q-89 -66 -139 -84.5t-128 -18.5 q-67 0 -124 18t-121 63l-81 -76l-33 13q12 126 13 159q6 217 6 255v445q0 167 -6 345q-4 120 -11 134q-5 10 -16 14q-15 7 -138 7zM316 266q0 -50 5.5 -64t33.5 -37q42 -35 97.5 -56t117.5 -21q145 0 223 112t78 277q0 117 -37 196t-102 118.5t-146 39.5q-95 0 -170 -54.5 t-100 -135.5v-375z" />
<glyph unicode="c" horiz-adv-x="909" d="M80 451q0 117 33.5 203.5t82.5 133.5q33 33 125.5 85.5t129.5 67.5q68 29 163 29q90 0 162 -19q46 -12 92 -40q-12 -77 -17 -116.5t-13 -143.5h-57q-6 97 -12 121q-4 15 -18 27q-36 28 -92.5 48.5t-123.5 20.5q-84 0 -145.5 -34.5t-95.5 -109.5t-34 -186q0 -136 48 -246 t130.5 -160.5t184.5 -50.5q51 0 99.5 12.5t124.5 47.5l21 -26l-40 -67q-69 -37 -136.5 -54t-152.5 -17q-210 0 -334.5 126.5t-124.5 347.5z" />
<glyph unicode="d" horiz-adv-x="1251" d="M84 442q0 100 31.5 189.5t79.5 138.5q27 28 123 85t155.5 82.5t129.5 25.5q63 0 123.5 -15.5t117.5 -47.5v263q0 139 -12 169q-4 11 -15 16q-20 9 -138 10v57q111 12 187.5 28.5t149.5 40.5l13 -9q-4 -85 -9 -328l-4 -160v-626q0 -102 4 -176q3 -75 12 -89.5t30 -23.5 t125 -18v-54q-122 7 -172 7q-43 0 -176 -7q3 69 5 186q-40 -29 -107.5 -87t-105.5 -95q-80 -20 -141 -20q-113 0 -208 56t-146.5 162.5t-51.5 239.5zM262 500q0 -183 91 -286t219 -103q67 0 120 28t93 82t51 120q8 44 8 217v171q-68 75 -142.5 109.5t-146.5 34.5 q-82 0 -151 -42t-105.5 -127t-36.5 -204z" />
<glyph unicode="e" horiz-adv-x="981" d="M51 452q0 115 31.5 207.5t71.5 136.5q29 32 90 73.5t121 65.5q79 33 171 33q112 0 202.5 -51t132.5 -139t42 -199q0 -28 -4 -68q-72 -14 -129 -18q-108 -8 -216 -8h-321q2 -143 49.5 -231.5t131 -130.5t173.5 -42q61 0 121.5 19.5t149.5 71.5l16 -17l-32 -72 q-69 -43 -101 -57q-47 -21 -107.5 -35.5t-127.5 -14.5q-132 0 -239 55t-166.5 164.5t-59.5 256.5zM243 564q28 -3 106 -6q149 -5 205 -5q133 0 175 5q1 24 1 37q0 158 -64 232t-171 74q-113 0 -182 -81t-70 -256z" />
<glyph unicode="f" horiz-adv-x="682" d="M49 0v57l95 1q21 1 32.5 7.5t17.5 16.5q11 20 14 71q0 13 6 287v350l-138 -8v41q78 33 138 70v60q0 130 16.5 183.5t46.5 95.5q45 62 142 158q65 63 96 79q41 21 96 21q39 0 80 -13l4 -166l-23 -9q-31 26 -61.5 38t-71.5 12q-54 0 -88 -22t-49.5 -63t-15.5 -167v-207h106 q80 0 157 6l10 -6l-20 -103q-87 4 -128 4q-42 0 -125 -4v-358q0 -66 5 -241q1 -62 5 -79t10.5 -24.5t21.5 -12.5q30 -9 162 -18v-57q-233 7 -284 7q-46 0 -257 -7z" />
<glyph unicode="g" horiz-adv-x="1139" d="M71 -257q0 44 13.5 82.5t45.5 82.5q122 56 175 98q-83 27 -106.5 51t-23.5 48q0 20 30 108q49 41 154 116q-90 25 -138.5 58.5t-75.5 91t-27 126.5q0 102 52 182.5t175 131t228 50.5q68 0 129.5 -22t116.5 -66q188 1 289 4l8 -19q-39 -59 -51 -81h-186q23 -59 23 -111 q0 -76 -39.5 -148.5t-115.5 -124t-162 -69.5q-48 -10 -124 -10h-27q-65 -52 -82 -78q-11 -18 -11 -39q0 -24 14.5 -42.5t44.5 -25.5q45 -12 160 -12l216 4q113 0 171.5 -29.5t86.5 -90t28 -136.5q0 -103 -67.5 -209.5t-200.5 -168t-298 -61.5q-138 0 -235 43t-143.5 115 t-46.5 151zM226 -251q0 -105 81.5 -177.5t224.5 -72.5q106 0 193.5 42.5t132 116t44.5 147.5q-3 64 -19.5 97t-40 52t-64.5 31q-24 3 -195 4q-149 0 -187 -4q-19 -3 -43 -20q-79 -56 -84 -62q-10 -10 -22 -41q-21 -56 -21 -113zM290 660q0 -71 26.5 -138t78 -101t117.5 -34 q86 0 152 55.5t66 178.5q0 126 -66 200.5t-159 74.5q-97 0 -156 -61.5t-59 -174.5z" />
<glyph unicode="h" horiz-adv-x="1192" d="M7 1457v59q226 28 314 70q13 6 20 6t11 -4.5t4 -12.5q0 -7 -2 -20l-1 -33q-5 -179 -6 -305l-2 -156v-292q14 11 79 68t77 68q19 18 30 24q19 10 57 20q52 14 101 14q92 0 174.5 -43.5t114.5 -109.5t32 -195v-176l3 -138q3 -129 3 -145q2 -48 12 -70q4 -10 12 -16.5 t24 -9.5q6 -1 104 -3v-57q-114 5 -166 5q-44 0 -181 -5q14 148 14 288v248q0 116 -17 167t-69.5 91.5t-139.5 40.5q-55 0 -98 -16t-79 -48t-61 -69q-12 -18 -16 -43.5t-4 -102.5v-117q5 -259 6 -280q2 -50 12 -73q4 -10 12 -16.5t24 -9.5q7 -1 111 -3v-57q-178 7 -246 7 q-59 0 -257 -7v57l94 1q22 1 33.5 7.5t17.5 16.5q11 20 13 71q1 13 7 287v517q0 167 -6 345q-4 120 -11 134q-5 10 -16 14q-15 7 -138 7z" />
<glyph unicode="i" horiz-adv-x="596" d="M45 0v57l95 1q21 1 32.5 7.5t17.5 16.5q11 20 14 71q0 13 6 287v176q0 149 -10 177q-6 15 -21.5 22.5t-133.5 7.5v57q194 22 326 84l22 -16q-8 -213 -8 -326v-182q5 -260 6 -281q1 -50 11 -73q5 -9 13 -15.5t24 -10.5q6 -1 111 -3v-57q-152 7 -243 7q-80 0 -262 -7z M176 1295q0 47 33 80t80 33t79.5 -33t32.5 -80q0 -46 -33 -79t-79 -33q-47 0 -80 33t-33 79z" />
<glyph unicode="j" horiz-adv-x="479" d="M-66 -494q34 -3 46 -3q31 0 55 13q34 17 61.5 53.5t42 93t19.5 187.5q4 130 4 169v561q0 26 -3 131q-2 66 -9 86q-4 10 -13 16q-15 10 -53 10q-55 0 -87 1v57q215 24 312 77q16 9 25 9q7 0 11.5 -5t4.5 -15q0 -8 -1 -20q-3 -27 -5 -82q-5 -104 -7 -237q-4 -195 -4 -220 l3 -275q0 -265 -40 -389q-29 -88 -82 -155.5t-112.5 -101t-133.5 -33.5q-8 0 -22 1zM129 1295q0 47 33 80t80 33t80 -33t33 -80q0 -46 -33 -79t-80 -33q-46 0 -79.5 33t-33.5 79z" />
<glyph unicode="k" horiz-adv-x="1139" d="M33 1355v59q226 28 314 70q13 6 20 6t11 -4.5t4 -12.5q0 -7 -2 -20l-1 -33q-5 -179 -6 -305l-2 -156v-402l11 -6q53 33 153 117q67 57 301 276q77 -3 98 -3q20 0 101 3v-56q-58 -3 -74 -8q-22 -7 -83 -46q-96 -61 -231 -173l-102 -81q81 -83 280 -278 q150 -153 180.5 -178.5t59.5 -30.5t90 -5v-45q-74 -14 -125 -25.5t-117 -27.5q-34 28 -66 57.5t-131 131.5q-203 208 -334 325l-11 -5v-59q5 -260 6 -281q1 -50 12 -73q4 -9 12 -15.5t24 -10.5q7 -1 111 -3v-57q-132 8 -239 8q-104 0 -258 -8v57l94 1q22 1 33.5 7.5 t17.5 16.5q11 20 13 71q1 13 7 287v415q0 167 -6 345q-4 120 -11 134q-5 10 -16 14q-15 7 -138 7z" />
<glyph unicode="l" horiz-adv-x="596" d="M45 1355v59q226 28 314 70q13 6 20 6t11 -4.5t4 -12.5q0 -7 -2 -20l-1 -33q-5 -179 -6 -305l-2 -156v-519q5 -260 6 -281q1 -50 12 -73q4 -9 12 -15.5t24 -10.5q7 -1 111 -3v-57q-136 8 -239 8q-98 0 -258 -8v57l94 1q22 1 33.5 7.5t17.5 16.5q11 20 13 71q1 13 7 287 v415q0 167 -6 345q-4 120 -11 134q-5 10 -16 14q-15 7 -138 7z" />
<glyph unicode="m" horiz-adv-x="1808" d="M42 0v57l95 1q21 1 32.5 7.5t17.5 16.5q11 20 14 71q0 13 6 287v119q0 80 -3 172q-3 59 -9.5 70t-22.5 17q-13 4 -95 4h-35v57q202 28 295 73q20 10 27 10t11 -5t4 -15q0 -7 -1 -16q-4 -48 -6 -143l131 120q25 22 31 25q23 13 66 24t90 11q96 0 171 -47t115 -139l110 102 q37 34 51 42q26 15 74 28t95 13q114 0 191 -60.5t99 -137.5q14 -51 14 -220v-104l3 -139q3 -121 3 -142q2 -50 12 -73q4 -9 12.5 -15.5t24.5 -10.5q6 -1 110 -3v-57q-126 6 -172 6q-44 0 -177 -6l9 276l3 108v86q0 168 -17 229.5t-71.5 99.5t-126.5 38q-83 0 -150 -48 q-50 -37 -66 -87t-16 -195v-67l3 -139q2 -121 3 -142q2 -50 12 -73q4 -9 12 -15.5t24 -10.5q7 -1 111 -3v-57q-147 8 -236 8q-72 0 -262 -8v57l95 1q22 1 33.5 7.5t17.5 16.5q11 20 13 71q1 13 6 287v78q0 129 -20 188.5t-70 95t-120 35.5q-60 0 -113.5 -25.5t-82.5 -63.5 t-35 -81q-10 -69 -10 -166v-61q6 -260 6 -281q2 -50 12 -73q4 -9 12 -15.5t25 -10.5q6 -1 110 -3v-57q-138 8 -235 8q-86 0 -260 -8z" />
<glyph unicode="n" horiz-adv-x="1192" d="M28 0v57l95 1q21 1 32.5 7.5t17.5 16.5q11 20 14 71q0 13 6 287v119q0 80 -3 172q-3 59 -9.5 70t-22.5 17q-13 4 -95 4h-35v57q202 28 295 73q20 10 27 10t11 -5t4 -15q0 -7 -1 -16q-3 -36 -6 -152l186 159q82 30 155 30q81 0 153.5 -33t109 -83t48.5 -126q7 -45 7 -251 v-177q0 -130 7 -177q5 -30 15.5 -41.5t32.5 -14.5l107 -3v-57q-98 7 -163 7q-56 0 -186 -7q14 247 14 312v168q0 157 -12 206q-17 67 -77 108t-145 41q-75 0 -137 -35.5t-88.5 -82t-26.5 -156.5v-121q6 -260 6 -281q2 -50 12 -73q4 -9 12 -15.5t25 -10.5q6 -1 110 -3v-57 q-122 7 -221 7q-84 0 -274 -7z" />
<glyph unicode="o" horiz-adv-x="1118" d="M68 460q0 224 142.5 365.5t365.5 141.5q210 0 342 -132t132 -341q0 -146 -68 -267t-192 -189.5t-273 -68.5q-116 0 -196.5 39t-130.5 98t-76 121q-46 109 -46 233zM257 534q0 -123 41 -250t118.5 -185.5t168.5 -58.5q116 0 194 92t78 283q0 159 -46.5 274.5t-118.5 163 t-159 47.5q-123 0 -199.5 -89t-76.5 -277z" />
<glyph unicode="p" horiz-adv-x="1231" d="M36 823v58q18 0 76 8.5t129 29t107 39.5q11 6 18 6t11.5 -5t4.5 -17q0 -5 -1 -24q-2 -29 -2 -53v-106q169 157 211 177q55 27 164 27q127 0 219 -57.5t133.5 -149t41.5 -195.5q0 -63 -14.5 -119t-37 -105.5t-50 -91t-51.5 -62.5q-14 -13 -72.5 -60t-125 -81.5 t-92.5 -42.5q-57 -18 -121 -18q-50 0 -97.5 12t-107.5 41v-159q5 -253 6 -279q1 -49 12 -72q4 -11 12.5 -17.5t24.5 -9.5q9 -2 119 -4v-57q-125 5 -331 5q-114 0 -175 -5v57l95 1q21 1 32.5 7.5t17.5 16.5q11 20 14 71q1 13 6 286v355q0 173 -4 355t-8.5 198.5t-14.5 25 t-26 11.5zM379 206q53 -54 121 -85t143 -31q91 0 165.5 45.5t118 141.5t43.5 209q0 109 -41.5 189.5t-117.5 121t-153 40.5q-57 0 -112.5 -22.5t-100.5 -65.5t-60 -82q-6 -19 -6 -73v-388z" />
<glyph unicode="q" horiz-adv-x="1147" d="M79 436q0 79 21.5 157.5t53 125.5t81.5 85q28 21 126 74.5t132 64.5q62 20 132 20q66 0 128 -16.5t136 -53.5l103 65l37 -22q-33 -92 -40 -148q-12 -98 -12 -335v-576l2 -139q3 -120 4 -141q1 -50 11 -73q5 -10 13 -16.5t24 -9.5q6 -1 111 -4v-56q-109 7 -255 7 q-153 0 -261 -7v56q116 3 125 4q17 4 26 10.5t14 18.5q10 22 12 70q0 5 4 134q3 129 3 146v267q-26 -13 -49.5 -26.5t-60.5 -37.5l-132 -87q-50 -8 -89 -8q-196 0 -298 140t-102 311zM259 508q0 -113 40.5 -214t112 -147t157.5 -46q71 0 130 34t111 98q3 259 3 328 q0 105 -3 216q-39 39 -109.5 71.5t-140.5 32.5q-127 0 -214 -98.5t-87 -274.5z" />
<glyph unicode="r" horiz-adv-x="809" d="M47 0v57q113 2 122 4q17 3 25.5 9.5t13.5 18.5q10 23 12 72q6 267 6 279v119q0 80 -3 172q-2 59 -8.5 70t-22.5 17q-14 4 -96 4h-35v57q202 28 295 73q20 10 27 10t11 -5t4 -15q0 -7 -1 -16q-5 -61 -6 -189q45 52 83 103t55 66q30 26 69 41.5t81 15.5t83 -18l6 -14 q-15 -133 -17 -234h-45q-23 48 -53.5 70t-76.5 22q-77 0 -131 -63.5t-54 -190.5v-103q0 -66 5 -241q1 -62 5 -79t10.5 -24.5t21.5 -12.5q30 -9 162 -18v-57q-176 7 -300 7q-128 0 -248 -7z" />
<glyph unicode="s" horiz-adv-x="868" d="M74 30q0 7 2 17q9 43 12 84t5 171h60q1 -58 6 -92t17 -66.5t37 -55t54.5 -35t60 -16.5t92.5 -4q102 0 167.5 54t65.5 148q0 42 -20.5 74t-59 50t-165.5 47t-164 42q-56 21 -89 51t-52.5 76t-19.5 100q0 79 41.5 145.5t130.5 108t194 41.5q63 0 146 -17.5t135 -43.5 q-7 -111 -10 -226h-57q-5 73 -11.5 96t-17.5 41t-38 38.5t-69.5 36.5t-104.5 16q-88 0 -141.5 -52t-53.5 -122q0 -39 15.5 -67t41.5 -45.5t73 -31.5l166 -41q126 -32 173.5 -55t76.5 -71.5t29 -116.5q0 -135 -111.5 -235.5t-298.5 -100.5q-86 0 -229 26q-79 15 -85 21 q-4 3 -4 10z" />
<glyph unicode="t" horiz-adv-x="668" d="M46 784v42q100 38 159 68q0 238 -6 304q104 36 169 77l24 -20q-11 -83 -24 -366q80 -1 96 -1q9 0 103 2q52 1 78 4l7 -7l-21 -93q-63 1 -116 1t-147 -1l-6 -407q-1 -56 -1 -95q0 -65 3 -83q5 -29 19 -50.5t36.5 -34.5t76.5 -20q41 0 66.5 3.5t64.5 17.5l12 -39 q-47 -37 -91 -77q-38 -14 -71 -18.5t-76 -4.5q-53 0 -84.5 12t-57.5 33.5t-43 54.5t-22 104q1 68 4 149q1 16 1 35v415h-41q-50 0 -112 -5z" />
<glyph unicode="u" horiz-adv-x="1235" d="M26 821v57q215 24 312 77q16 9 25 9q7 0 11.5 -5t4.5 -15q0 -8 -1 -20q-4 -32 -7 -123q-6 -167 -6 -224v-195q0 -122 16.5 -171.5t64 -79t117.5 -29.5q48 0 95.5 16.5t85.5 47.5q28 23 57 62q22 29 29 44.5t9 45.5q5 88 5 175v84q0 26 -3 131q-2 66 -9 86q-4 10 -13 16 q-15 10 -53 10q-55 0 -87 1v57q215 24 312 77q16 9 25 9q7 0 11.5 -5t4.5 -15q0 -8 -1 -20q-3 -32 -7 -127q-6 -163 -6 -220v-137l2 -139q3 -121 4 -142q1 -50 11 -73q5 -9 13 -15.5t24 -10.5q6 -1 111 -3v-57q-131 7 -198 7q-74 0 -150 -7q6 81 9 182q-60 -48 -143 -131 q-19 -19 -37 -28q-43 -24 -86 -34.5t-103 -10.5q-81 0 -135.5 22t-93.5 67q-29 33 -44.5 85.5t-15.5 126.5q0 35 2.5 66t2.5 61v171q0 26 -3 131q-2 66 -9 86q-4 10 -13 16q-15 10 -53 10q-55 0 -87 1z" />
<glyph unicode="v" horiz-adv-x="1157" d="M30 880v60q166 -7 242 -7q84 0 230 7v-60q-108 -3 -127 -14t-19 -30q0 -30 40 -129l122 -304l29 -68q49 -119 67 -159l100 227q9 20 91 225q48 119 64 182q4 17 4 30q0 17 -13 24q-24 13 -128 16v60q149 -7 191 -7q35 0 191 7v-60q-62 -3 -82.5 -14.5t-40.5 -47.5 q-14 -24 -108 -216l-96 -205q-25 -55 -173 -407h-104q-39 102 -54 137l-82 191l-205 477q-20 45 -34 60t-31 19q-14 4 -74 6z" />
<glyph unicode="w" horiz-adv-x="1708" d="M29 882v58q110 -7 236 -7q134 0 250 7v-58q-93 -1 -121 -7q-19 -4 -27.5 -14.5t-8.5 -24.5q0 -23 29 -123l93 -322q23 -81 56 -175l76 174l147 329q52 117 98 236h49q66 -183 90 -242l115 -290q59 -146 89 -220l75 197q73 190 114 324q23 73 23 103q0 28 -19.5 40.5 t-129.5 14.5v58q152 -7 210 -7q70 0 190 7v-58q-58 -1 -78 -10.5t-35 -31.5q-26 -34 -81 -160l-105 -250l-45 -112q-13 -33 -77 -203q-28 -72 -42 -126h-94l-48 125l-228 573l-96 -207l-113 -251q-39 -87 -63 -148l-33 -92h-96l-42 139l-93 309q-40 134 -81.5 259t-55 144 t-33 27t-95.5 15z" />
<glyph unicode="x" horiz-adv-x="1057" d="M36 0v57q48 0 75 14q36 20 97 91l234 287l-85 126q-68 102 -132.5 182t-106.5 105q-16 9 -38 9q-9 0 -32 -2l-12 57q116 13 235 39q38 -35 70 -74q55 -71 134 -193l74 -117l62 80q73 93 206 285q52 -3 78 -3q24 0 75 3v-56q-44 -1 -66 -16q-46 -31 -151 -160l-96 -115 l-62 -81l37 -56q24 -35 128.5 -179.5t147.5 -190.5q22 -23 37 -29t59 -6v-57q-70 4 -126 4q-59 0 -124 -4q-64 81 -115 156l-152 228q-111 -129 -276 -384q-40 4 -88 4q-47 0 -87 -4z" />
<glyph unicode="y" horiz-adv-x="1139" d="M16 884v56q124 -7 245 -7q118 0 227 7v-56q-103 -7 -118 -13q-26 -10 -26 -36q0 -16 17 -66q39 -123 74 -210l63 -156q57 -140 96 -227l53 118q31 70 109 266t91 242q4 16 4 28q0 19 -15.5 29.5t-120.5 20.5v60q116 -7 205 -7q90 0 178 7l-10 -60q-51 -2 -79 -22 t-84.5 -134.5t-209.5 -450.5l-231 -540q-56 -131 -97 -187t-98 -85t-125 -29q-33 0 -59.5 7.5t-59.5 25.5l51 154h24q19 -16 32.5 -25.5t29 -14.5t45.5 -5q31 0 60.5 13.5t55 42.5t60.5 100q53 107 95 218q-32 90 -77 202l-159 394q-71 176 -116 270q-18 37 -38.5 49.5 t-91.5 20.5z" />
<glyph unicode="z" d="M36 46q103 110 160 178q132 159 355 438q28 35 143 197h-232q-48 0 -154 -6q-65 -3 -79 -10q-7 -3 -11.5 -10.5t-13.5 -48.5l-20 -116h-56q10 173 10 192q0 24 -2 67l8 7q371 -7 596 -7q108 0 191 7v-53q-68 -71 -236 -285q-322 -406 -404 -520h70q84 0 237 4 q152 4 221 19q22 5 27 10q4 3 7 13q20 63 38 169h62q-15 -117 -18 -141q-2 -15 -11 -139q-58 -11 -146 -11l-434 8l-297 -8z" />
<glyph unicode="{" horiz-adv-x="682" d="M119 562q60 19 91.5 43t44.5 61q22 60 22 140v379q0 93 17 148.5t55 90.5t89.5 49t140.5 14v-25h-10q-45 0 -75 -25q-34 -29 -51 -78.5t-17 -140.5v-378q0 -77 -12.5 -125.5t-33.5 -76t-52 -46.5q-23 -14 -72 -30q67 -21 101.5 -51t48.5 -71q20 -53 20 -159v-371 q0 -95 21 -147.5t58 -77.5q32 -17 71 -17h4v-24q-83 0 -129 10q-61 14 -99 47t-56.5 92t-18.5 173v345q0 90 -14 133t-45 69.5t-99 48.5z" />
<glyph unicode="|" horiz-adv-x="1241" d="M563 0v1497h115v-1497h-115z" />
<glyph unicode="}" horiz-adv-x="682" d="M104 -332h10q34 0 68 11q47 25 61 79t14 152v371q0 84 13 138q9 38 31 66t53 47q23 14 72 30q-62 20 -96 47t-51 69q-22 58 -22 162v378q0 72 -10.5 115.5t-31 73t-47.5 44.5q-21 12 -49 12q-7 0 -15 -1v25q82 0 133.5 -12t91 -46.5t58 -89.5t18.5 -154v-379 q0 -126 46 -181q31 -37 112 -63q-66 -21 -97.5 -47.5t-46 -68.5t-14.5 -135v-345q0 -83 -9 -130q-11 -61 -34 -97t-60 -58t-96 -31q-36 -6 -102 -7v25z" />
<glyph unicode="~" horiz-adv-x="1241" d="M104 446q66 105 96 138q44 50 94.5 74.5t98.5 24.5q41 0 93 -15t193 -76q81 -35 112 -44.5t65 -9.5q52 0 105.5 41t104.5 135l71 -80q-63 -116 -136.5 -170.5t-146.5 -54.5q-38 0 -77 11q-50 15 -231 89q-70 29 -96 36t-53 7q-41 0 -75 -18t-70 -60q-10 -12 -76 -111z " />
<glyph unicode="&#xa1;" horiz-adv-x="569" d="M154 816q0 50 35 85t85 35t84.5 -35t34.5 -85q0 -49 -35 -84t-84 -35q-50 0 -85 35t-35 84zM156 -404l53 568l25 315l55 51l19 -10q8 -202 46 -593q17 -166 22 -242q2 -43 2 -86v-30q-85 -39 -155 -79h-67v106z" />
<glyph unicode="&#xa2;" d="M127 454q0 107 29.5 190.5t74.5 132.5q41 42 116 88t121 67.5t83 28.5v194h84v-184h27q74 0 133 -14q69 -17 119 -43q-14 -86 -19.5 -133.5t-10.5 -129.5h-57q-5 96 -25 139t-63 68q-40 22 -94 22h-10v-799q25 -2 47 -2q22 -1 41 2q37 4 69.5 14.5t101.5 45.5l20 -25 l-40 -65q-47 -30 -84.5 -43.5t-70.5 -19.5t-84 -8v-179h-84v179q-121 4 -194 39.5t-124 93t-78.5 138.5t-27.5 203zM307 537q0 -177 54.5 -284t189.5 -158v776q-23 -2 -52.5 -11t-74.5 -40t-81 -92.5t-36 -190.5z" />
<glyph unicode="&#xa3;" d="M-10 -20l34 91q40 36 99 63q41 67 64 136t31 157q5 57 5 176v42q-142 0 -201 -9l17 94q51 -5 184 -7v69q0 34 5 130.5t22 151.5t50 96.5t143.5 118t180.5 100t148 23.5q65 0 116.5 -13.5t89.5 -40.5q-11 -81 -14 -120t-7 -155h-58q-1 9 -3 32q-6 92 -24 121.5t-70 55 t-118 25.5q-99 0 -165.5 -55.5t-90 -155.5t-33.5 -383h120q126 0 251 6l6 -6l-18 -84q-142 6 -264 6h-102q-9 -132 -48.5 -242t-141.5 -263q123 12 203 12q65 0 189 -6q190 -9 231 -9q36 0 49 10.5t19 41.5l19 131h59q-8 -158 -10 -308l-64 -35h-51q-86 0 -147 5 q-49 5 -200 33q-219 41 -333 47q-38 -51 -91 -94z" />
<glyph unicode="&#xa4;" horiz-adv-x="1241" d="M44 77l244 244q-38 52 -59.5 114t-21.5 127q0 68 21 128.5t60 112.5l-244 244l76 76l244 -244q53 39 113 60t128 21t128.5 -21t112.5 -60l244 244l76 -76l-244 -244q39 -51 60 -112t21 -129t-21 -128.5t-60 -112.5l244 -244l-76 -76l-244 244q-51 -38 -113.5 -59.5 t-127.5 -21.5q-68 0 -128.5 21t-112.5 60l-244 -244zM304 562q0 -125 88 -214.5t213 -89.5q124 0 212.5 89.5t88.5 214.5q0 126 -88.5 215t-212.5 89q-125 0 -213 -89t-88 -215z" />
<glyph unicode="&#xa5;" d="M-27 1357v64q190 -7 247 -7q54 0 242 7l-1 -64q-24 -3 -50.5 -7t-44 -10t-27.5 -17t-10 -38t5 -43t20 -51l97 -221h222l74 169q18 43 29.5 81.5t11.5 70.5q0 31 -25 48.5t-56 17.5h-58v64q164 -5 211 -5q54 0 189 5v-64q-33 0 -62 -8t-50 -28t-61 -90.5t-91 -173.5 l-42 -87h232v-69h-266l-114 -248v-13h380v-69h-380l-2 -350q1 -89 24 -116.5t96.5 -34t97.5 -6.5v-64q-206 9 -299 9t-306 -9v64l92 6q78 8 99 37.5t21 110.5l-2 353h-368v69h368v11l-116 250h-252v69h220l-133 285q-18 39 -42.5 65.5t-41.5 29.5t-40.5 5t-37.5 2zM482 901 l78 -168l82 168h-160z" />
<glyph unicode="&#xa6;" horiz-adv-x="1241" d="M563 0v591h115v-591h-115zM563 906v591h115v-591h-115z" />
<glyph unicode="&#xa7;" d="M56 497q0 81 39 147.5t130 136.5q-64 49 -91 97t-27 113q0 100 66.5 218.5t172.5 177.5t237 59q75 0 141.5 -18t125.5 -54q-21 -163 -26 -311h-64l-5 112q-1 28 -5 62q-46 50 -107 74.5t-137 24.5q-130 0 -205.5 -69t-75.5 -167q0 -52 18.5 -89t52 -63.5t103 -53.5 t217.5 -74t194 -72q67 -37 104.5 -96t37.5 -137q0 -77 -38 -146t-123 -140q69 -47 95.5 -93t26.5 -117q0 -174 -148 -319t-361 -145q-90 0 -168 23.5t-145 70.5q22 130 26 312h64q5 -86 17 -183q56 -61 111 -85q86 -38 182 -38q87 0 156.5 34.5t104 95t34.5 125.5 q0 58 -28 103.5t-89 76.5t-271 103q-164 56 -224 92t-89 91t-29 121zM191 579q0 -61 40.5 -108.5t133.5 -80.5l380 -136q43 64 57 102t14 77q0 68 -39.5 114t-148.5 88l-350 119q-41 -35 -64 -82.5t-23 -92.5z" />
<glyph unicode="&#xa8;" horiz-adv-x="682" d="M26 1280q0 46 32 77.5t77 31.5q46 0 77.5 -31.5t31.5 -77.5q0 -45 -32 -77t-77 -32t-77 32t-32 77zM439 1280q0 46 31.5 77.5t77.5 31.5q45 0 77 -31.5t32 -77.5q0 -45 -32 -77t-77 -32t-77 32t-32 77z" />
<glyph unicode="&#xa9;" horiz-adv-x="1530" d="M22 705q0 157 62.5 296.5t152 227t196.5 140.5q159 79 332 79q122 0 234.5 -38.5t201.5 -103.5t159 -156.5t109 -207.5t39 -237q0 -162 -63 -298t-155.5 -227t-203.5 -145q-153 -73 -321 -73q-194 0 -372.5 100t-274.5 278t-96 365zM113 705q0 -167 84 -326.5t241 -249 t327 -89.5q148 0 281 65q98 48 179.5 129t136.5 203t55 268q0 108 -34 211.5t-95.5 185.5t-139.5 141t-177 93t-206 34q-170 0 -327 -89t-241 -249t-84 -327zM366 699q0 172 107.5 298.5t317.5 126.5q141 0 288 -53v-219h-53q-8 81 -29 124t-69 69t-119 26 q-131 0 -217.5 -93.5t-86.5 -252.5q0 -103 37 -188q28 -64 68 -107.5t86.5 -65t112.5 -21.5q87 0 142 35t107 123l41 -18q-40 -75 -73 -110q-44 -45 -109 -70.5t-146 -25.5q-177 0 -291 116.5t-114 305.5z" />
<glyph unicode="&#xaa;" horiz-adv-x="682" d="M48 1009q0 55 27 95t82 65t170 43l112 18q-2 75 -34 108q-47 49 -148 49q-56 0 -77 -21q-16 -16 -43 -84l-35 8v81q91 53 133.5 66.5t96.5 13.5q91 0 146 -39q41 -29 56 -75q10 -32 10 -154v-169q0 -65 7 -83q4 -10 16 -14.5t67 -6.5v-35q-38 4 -89 4q-63 0 -106 -4v103 l-141 -88q-40 -24 -86 -24q-75 0 -119.5 41t-44.5 102zM163 1033q0 -42 29 -69t73 -27q34 0 81.5 24.5t92.5 67.5v160q-173 -24 -224.5 -58.5t-51.5 -97.5z" />
<glyph unicode="&#xab;" d="M102 456v24q16 16 58 57l132 129q28 28 164 167l50 -34q-57 -74 -153 -207q-54 -74 -84 -123q36 -54 80 -114l157 -214l-50 -34q-53 58 -155 159q-130 128 -199 190zM513 456v24q15 16 57 57l133 129q28 28 163 167l50 -34q-57 -74 -153 -207q-53 -74 -83 -123 q36 -54 80 -114l156 -214l-50 -34q-52 58 -154 159q-131 128 -199 190z" />
<glyph unicode="&#xac;" horiz-adv-x="1241" d="M105 683v100h1023v-533h-94v433h-929z" />
<glyph unicode="&#xad;" horiz-adv-x="682" d="M45 438v14l45 134h535v-15l-48 -133h-532z" />
<glyph unicode="&#xae;" horiz-adv-x="1530" d="M22 705q0 157 62.5 296.5t152 227t196.5 140.5q159 79 332 79q122 0 234.5 -38.5t201.5 -103.5t159 -156.5t109 -207.5t39 -237q0 -162 -63 -298t-155.5 -227t-203.5 -145q-153 -73 -321 -73q-194 0 -372.5 100t-274.5 278t-96 365zM113 705q0 -167 84 -326.5t241 -249 t327 -89.5q148 0 281 65q98 48 179.5 129t136.5 203t55 268q0 108 -34 211.5t-95.5 185.5t-139.5 141t-177 93t-206 34q-170 0 -327 -89t-241 -249t-84 -327zM413 327v31q64 1 75 5.5t17.5 17.5t6.5 64v573q0 52 -6.5 65.5t-23.5 17.5q-10 3 -69 4v32h345q123 0 188 -25.5 t93 -73t28 -102.5q0 -78 -55 -136.5t-173 -78.5q39 -11 58 -25q30 -22 55 -60t62.5 -122.5t55.5 -110t37 -35.5q14 -7 46 -10v-31h-90q-55 0 -82.5 12t-44.5 40q-28 44 -82 178q-28 71 -49 97.5t-44 36t-71 9.5h-46v-255q0 -52 6.5 -65t23.5 -18q10 -3 59 -4v-31h-320z M644 742h46q130 0 185.5 47t55.5 132q0 86 -47 131.5t-155 45.5h-34q-30 0 -36 -6.5t-10.5 -17t-4.5 -51.5v-281z" />
<glyph unicode="&#xaf;" horiz-adv-x="682" d="M17 1223v118h649v-118h-649z" />
<glyph unicode="&#xb0;" horiz-adv-x="819" d="M102 1103q0 80 40.5 153t115 114t152.5 41t152.5 -41t115 -114t40.5 -153t-40.5 -153t-114 -114t-153.5 -41t-153.5 41t-114 114t-40.5 153zM184 1103q0 -94 66 -160t160 -66t160 66t66 160t-66 160.5t-160 66.5t-160 -66.5t-66 -160.5z" />
<glyph unicode="&#xb1;" horiz-adv-x="1124" d="M44 0v92h1038v-92h-1038zM44 638v91h473v473h92v-473h473v-91h-473v-473h-92v473h-473z" />
<glyph unicode="&#xb2;" horiz-adv-x="614" d="M-1 564v39q88 90 176 173q137 131 177 182.5t57.5 97.5t17.5 88q0 72 -43 120.5t-130 48.5q-51 0 -82 -17t-52 -52q-13 -21 -41 -99h-50l26 183q55 48 104.5 66.5t119.5 18.5q93 0 158.5 -30.5t96.5 -85t31 -113.5q0 -46 -18.5 -96.5t-60.5 -104.5q-26 -35 -91 -96 l-223 -210h223q58 0 220 11q-2 -48 -2 -63q0 -17 2 -61q-181 4 -315 4q-155 0 -301 -4z" />
<glyph unicode="&#xb3;" horiz-adv-x="614" d="M1 775l63 15q30 -79 53.5 -109t70.5 -48.5t105 -18.5q81 0 132.5 52t51.5 141q0 75 -44 117.5t-124 42.5q-54 0 -106 -25l-21 7l21 87q86 0 115 8q45 12 79 52.5t34 91.5q0 54 -40.5 92.5t-104.5 38.5q-44 0 -84 -17.5t-61.5 -44.5t-34.5 -72h-51l38 147q49 44 95.5 62.5 t116.5 18.5q126 0 188.5 -52.5t62.5 -125.5q0 -46 -29 -94t-118 -112q66 -11 103 -28q49 -23 75 -63.5t26 -94.5q0 -115 -103 -204.5t-264 -89.5q-79 0 -191 31q-7 40 -14.5 67t-39.5 128z" />
<glyph unicode="&#xb4;" horiz-adv-x="682" d="M164 1111l287 296q39 40 56.5 49t39.5 9q37 0 60 -22.5t23 -56.5q0 -22 -13.5 -40.5t-57.5 -45.5l-311 -189h-84z" />
<glyph unicode="&#xb5;" horiz-adv-x="1180" d="M48 -346q0 30 11 113.5t33 235.5l55 379l67 560q62 26 102 38t58 12q17 0 17 -12q0 -3 -1 -6q-29 -124 -58.5 -325t-29.5 -329q0 -121 26.5 -182.5t93.5 -61.5q53 0 107.5 65.5t88 139.5t60.5 168t42 179l54 332q63 20 102.5 27t59.5 7q16 0 16 -7l-2 -11 q-20 -68 -52 -212.5t-44.5 -222.5t-27 -196t-14.5 -145q0 -37 6 -53.5t28 -16.5q32 0 80.5 47t85.5 85v-40q-60 -80 -146 -161t-128 -81q-44 0 -62 27.5t-18 78.5q0 42 5.5 103.5t14.5 130.5q-70 -167 -149.5 -252.5t-182.5 -85.5q-72 0 -110 35t-49 115q-5 -41 -8.5 -84.5 t-3.5 -93.5q0 -45 6 -115t15 -149q-19 -9 -64 -25t-57.5 -18.5t-15.5 -2.5q-11 0 -11 10z" />
<glyph unicode="&#xb6;" horiz-adv-x="1286" d="M78 1012q0 153 56 232t136 119t230 54h134q111 0 224 -2q240 -2 346 -4l-28 -55q-70 -6 -104 -8t-101 -7q-2 -43 -4 -88q-2 -47 -2 -311v-766v-266q0 -95 1 -130q103 -5 243 -19l-27 -56q-178 -6 -418 -8q-189 0 -358 6l30 57q60 7 89.5 10t94.5 5q2 16 2 67v334v424 q-216 0 -380 99.5t-164 312.5zM324 1018q0 -111 22.5 -164t52 -88t75.5 -59.5t148 -30.5v674q-118 -15 -166 -43.5t-90 -93t-42 -195.5zM706 -223h174l1 1569l-174 4z" />
<glyph unicode="&#xb8;" horiz-adv-x="682" d="M150 -409l31 67q70 -24 132 -24q53 0 81 24.5t28 60.5q0 32 -26.5 54.5t-76.5 22.5q-25 0 -60 -10l-18 15l90 199h74l-57 -134q34 6 61 6q85 0 129.5 -41t44.5 -100q0 -69 -61.5 -120.5t-182.5 -51.5q-98 0 -189 32z" />
<glyph unicode="&#xb9;" horiz-adv-x="614" d="M59 1300l335 121l18 -8q-18 -211 -18 -349v-286q0 -93 12 -123q7 -20 26 -30.5t83 -10.5h40v-50q-154 5 -226 5q-71 0 -227 -5v50q93 1 108 5q27 7 40 32t13 127v487q0 23 -1 31q-1 5 -6 8l-18 -5l-157 -65h-14z" />
<glyph unicode="&#xba;" horiz-adv-x="682" d="M20 1140q0 90 39.5 160t117.5 110.5t175 40.5q142 0 227 -81t85 -201q0 -129 -96.5 -221.5t-243.5 -92.5q-77 0 -130.5 21t-90 57.5t-56.5 79.5q-27 60 -27 127zM145 1191q0 -118 51 -207t159 -89q79 0 132 59.5t53 170.5q0 136 -63.5 211t-150.5 75q-83 0 -132 -54 t-49 -166z" />
<glyph unicode="&#xbb;" d="M97 141l158 216q43 58 79 112q-31 49 -84 123q-96 133 -153 207l50 34q145 -149 173 -176l181 -177v-24q-69 -62 -199 -190q-102 -101 -155 -159zM508 141l158 216q42 58 78 112q-30 49 -83 123q-96 133 -153 207l50 34q144 -149 173 -176l180 -177v-24 q-68 -62 -199 -190q-102 -101 -154 -159z" />
<glyph unicode="&#xbc;" horiz-adv-x="1536" d="M46 1300l335 121l18 -8q-18 -211 -18 -349v-286q0 -93 12 -123q7 -20 26 -30.5t83 -10.5h40v-50q-154 5 -226 5q-71 0 -227 -5v50q93 1 108 5q27 7 40 32t13 127v487q0 23 -1 31q-1 5 -6 8l-18 -5l-157 -65h-14zM308 0l923 1413h98l-915 -1413h-106zM843 254 q26 58 55 101l323 468l99 33l16 -7l-6 -269q-1 -90 -1 -124v-138l147 4v-104l-86 3h-61v-58q0 -58 16 -80.5t47 -29.5q16 -4 100 -5v-48q-163 5 -223 5q-53 0 -227 -5v48q84 1 102 5q29 7 45 31t16 79v58h-354zM942 318h263v388z" />
<glyph unicode="&#xbd;" horiz-adv-x="1536" d="M29 1300l335 121l18 -8q-18 -211 -18 -349v-286q0 -93 12 -123q7 -20 26 -30.5t83 -10.5h40v-50q-154 5 -226 5q-71 0 -227 -5v50q93 1 108 5q27 7 40 32t13 127v487q0 23 -1 31q-1 5 -6 8l-18 -5l-157 -65h-14zM251 0l923 1413h98l-915 -1413h-106zM890 0v39 q89 91 176 173q138 131 177.5 182.5t57 97.5t17.5 89q0 71 -42.5 119.5t-130.5 48.5q-51 0 -82 -17t-52 -51q-13 -22 -41 -100h-50l26 183q55 48 104.5 66.5t119.5 18.5q93 0 158.5 -30t96.5 -85t31 -114q0 -46 -18.5 -96.5t-59.5 -104.5q-27 -34 -92 -96l-222 -209h222 q58 0 221 10q-2 -48 -2 -63q0 -17 2 -61q-182 4 -316 4q-155 0 -301 -4z" />
<glyph unicode="&#xbe;" horiz-adv-x="1536" d="M24 775l63 15q30 -79 53.5 -109t70.5 -48.5t105 -18.5q81 0 132.5 52t51.5 141q0 75 -44 117.5t-124 42.5q-54 0 -106 -25l-21 7l21 87q86 0 115 8q45 12 79 52.5t34 91.5q0 54 -40.5 92.5t-104.5 38.5q-44 0 -84 -17.5t-61.5 -44.5t-34.5 -72h-51l38 147 q49 44 95.5 62.5t116.5 18.5q126 0 188.5 -52.5t62.5 -125.5q0 -46 -29 -94t-118 -112q66 -11 103 -28q49 -23 75 -63.5t26 -94.5q0 -115 -103 -204.5t-264 -89.5q-79 0 -191 31q-7 40 -14.5 67t-39.5 128zM331 0l923 1413h98l-916 -1413h-105zM865 254q27 58 55 101 l324 468l99 33l15 -7l-5 -269q-1 -90 -1 -124v-138l147 4v-104l-86 3h-61v-58q0 -58 16 -80.5t47 -29.5q16 -4 100 -5v-48q-163 5 -224 5q-52 0 -226 -5v48q84 1 102 5q28 7 44.5 31t16.5 79v58h-354zM965 318h263v388z" />
<glyph unicode="&#xbf;" horiz-adv-x="909" d="M103 -190q0 67 25.5 129.5t70.5 114.5t153 148.5t143 156.5q23 41 23 79q0 27 -11 53q-8 18 -35 50l43 31q90 -61 90 -157q0 -52 -26.5 -104t-126.5 -164t-136 -184q-26 -52 -26 -107q0 -95 70.5 -162t180.5 -67q28 0 60 6.5t68 19.5q19 21 33 44q22 37 58 117l53 -7 l7 -10l-78 -236q-64 -40 -124 -58t-133 -18q-111 0 -200.5 42t-135.5 117.5t-46 165.5zM384 816q0 50 35 85t85 35q49 0 84 -35t35 -85q0 -49 -35 -84t-84 -35q-50 0 -85 35t-35 84z" />
<glyph unicode="&#xc0;" horiz-adv-x="1593" d="M35 0v68q79 1 98.5 6.5t36 21t47.5 80.5q18 37 130 281l250 564q41 93 175 414h65l427 -1003q104 -244 138 -306q19 -35 41.5 -46t101.5 -12v-68q-156 10 -218 10l-322 -10v68q112 2 136 7t32.5 14.5t8.5 23.5q0 22 -14 57l-123 306h-579l-109 -257q-29 -69 -29 -101 q0 -14 8 -23q11 -13 34 -18q37 -8 130 -9v-68q-169 9 -253 9q-97 0 -212 -9zM473 1765q0 32 23.5 54.5t61.5 22.5q24 0 46 -14q14 -9 48 -44l287 -296h-84l-310 189q-45 28 -58.5 46t-13.5 42zM500 561h505l-250 603z" />
<glyph unicode="&#xc1;" horiz-adv-x="1593" d="M35 0v68q79 1 98.5 6.5t36 21t47.5 80.5q18 37 130 281l250 564q41 93 175 414h65l427 -1003q104 -244 138 -306q19 -35 41.5 -46t101.5 -12v-68q-156 10 -218 10l-322 -10v68q112 2 136 7t32.5 14.5t8.5 23.5q0 22 -14 57l-123 306h-579l-109 -257q-29 -69 -29 -101 q0 -14 8 -23q11 -13 34 -18q37 -8 130 -9v-68q-169 9 -253 9q-97 0 -212 -9zM500 561h505l-250 603zM676 1488l287 296q39 40 56.5 49t39.5 9q37 0 60 -22.5t23 -56.5q0 -22 -13.5 -40.5t-57.5 -45.5l-311 -189h-84z" />
<glyph unicode="&#xc2;" horiz-adv-x="1593" d="M35 0v68q79 1 98.5 6.5t36 21t47.5 80.5q18 37 130 281l250 564q41 93 175 414h65l427 -1003q104 -244 138 -306q19 -35 41.5 -46t101.5 -12v-68q-156 10 -218 10l-322 -10v68q112 2 136 7t32.5 14.5t8.5 23.5q0 22 -14 57l-123 306h-579l-109 -257q-29 -69 -29 -101 q0 -14 8 -23q11 -13 34 -18q37 -8 130 -9v-68q-169 9 -253 9q-97 0 -212 -9zM495 1492l257 345h133l252 -345h-85l-237 209l-240 -209h-80zM500 561h505l-250 603z" />
<glyph unicode="&#xc3;" horiz-adv-x="1593" d="M35 0v68q79 1 98.5 6.5t36 21t47.5 80.5q18 37 130 281l250 564q41 93 175 414h65l427 -1003q104 -244 138 -306q19 -35 41.5 -46t101.5 -12v-68q-156 10 -218 10l-322 -10v68q112 2 136 7t32.5 14.5t8.5 23.5q0 22 -14 57l-123 306h-579l-109 -257q-29 -69 -29 -101 q0 -14 8 -23q11 -13 34 -18q37 -8 130 -9v-68q-169 9 -253 9q-97 0 -212 -9zM456 1546q25 108 87 165t130 57q36 0 72 -9.5t103 -41.5t90.5 -39t43.5 -7q62 0 105 101h68q-29 -115 -97 -178q-52 -49 -122 -49q-36 0 -71 9.5t-101.5 41.5t-90 39t-42.5 7q-30 0 -59 -22.5 t-48 -73.5h-68zM500 561h505l-250 603z" />
<glyph unicode="&#xc4;" horiz-adv-x="1593" d="M35 0v68q79 1 98.5 6.5t36 21t47.5 80.5q18 37 130 281l250 564q41 93 175 414h65l427 -1003q104 -244 138 -306q19 -35 41.5 -46t101.5 -12v-68q-156 10 -218 10l-322 -10v68q112 2 136 7t32.5 14.5t8.5 23.5q0 22 -14 57l-123 306h-579l-109 -257q-29 -69 -29 -101 q0 -14 8 -23q11 -13 34 -18q37 -8 130 -9v-68q-169 9 -253 9q-97 0 -212 -9zM491 1657q0 46 32 77.5t77 31.5q46 0 77.5 -31.5t31.5 -77.5q0 -45 -32 -77t-77 -32t-77 32t-32 77zM500 561h505l-250 603zM904 1657q0 46 31.5 77.5t77.5 31.5q45 0 77 -31.5t32 -77.5 q0 -45 -32 -77t-77 -32t-77 32t-32 77z" />
<glyph unicode="&#xc5;" horiz-adv-x="1593" d="M35 0v68q79 1 98.5 6.5t36 21t47.5 80.5q18 37 130 281l250 564q41 93 175 414h65l427 -1003q104 -244 138 -306q19 -35 41.5 -46t101.5 -12v-68q-156 10 -218 10l-322 -10v68q112 2 136 7t32.5 14.5t8.5 23.5q0 22 -14 57l-123 306h-579l-109 -257q-29 -69 -29 -101 q0 -14 8 -23q11 -13 34 -18q37 -8 130 -9v-68q-169 9 -253 9q-97 0 -212 -9zM500 561h505l-250 603zM581 1681q0 86 61.5 145.5t163.5 59.5t163.5 -59.5t61.5 -145.5t-61.5 -145.5t-163.5 -59.5t-163.5 59.5t-61.5 145.5zM683 1681q0 -67 30.5 -108t92.5 -41t92.5 41 t30.5 108t-30.5 108t-92.5 41t-92.5 -41t-30.5 -108z" />
<glyph unicode="&#xc6;" horiz-adv-x="1933" d="M0 0v69q59 0 81 7.5t45.5 34.5t63.5 100l536 948q56 98 72 136q6 14 6 26q0 20 -23 27q-17 5 -177 14v59q49 -1 222 -2l279 -4q68 0 155 2q178 7 300 7q119 0 229 -12q-14 -67 -22 -126.5t-16 -180.5h-63q-2 94 -3 111.5t-9 76.5q-128 42 -298 42q-104 0 -222 -9 q-11 -136 -11 -242v-306q89 -6 179 -6q181 0 234 14q17 4 23.5 18t17.5 105q2 23 6 43h64q-7 -125 -7 -217q0 -82 7 -244h-65l-10 119q-3 29 -9.5 40.5t-20 19t-55.5 10.5q-104 9 -165 9q-17 0 -199 -6v-358q0 -128 4 -219q201 -13 309 -13t177 11q49 8 95 26q19 57 51 216 h66q-21 -179 -28 -333q-51 -6 -118 -9q-118 -4 -166 -4l-482 8q-63 0 -201 -8v46q43 19 59 28.5t35 23.5q7 34 8 61l7 167q3 51 3 99v77q-117 6 -275 6q-130 0 -221 -6q-36 -60 -102 -183t-80 -163q-5 -17 -5 -29q0 -23 22 -35q33 -20 157 -23v-69q-139 7 -232 7 q-91 0 -228 -7zM516 588h448l4 453q0 112 -4 301h-25q-29 -44 -108 -185q-190 -338 -315 -569z" />
<glyph unicode="&#xc7;" horiz-adv-x="1452" d="M71 713q0 318 222.5 527.5t607.5 209.5q167 0 357 -50q112 -30 137 -35q-22 -55 -33 -108q-16 -85 -22 -197h-63l-1 118q-20 194 -397 194q-142 -2 -241 -36.5t-174.5 -109t-123.5 -189t-49 -287.5q0 -303 185 -487.5t489 -184.5q244 0 413 120l17 -21l-39 -93 q-218 -110 -463 -112l-45 -106q34 6 61 6q85 0 129.5 -41t44.5 -100q0 -69 -61.5 -120.5t-182.5 -51.5q-98 0 -189 32l31 67q70 -24 132 -24q109 0 109 85q0 77 -103 77q-25 0 -60 -10l-18 15l78 173q-332 17 -540 218.5t-208 520.5z" />
<glyph unicode="&#xc8;" horiz-adv-x="1251" d="M50 1357v64l285 -6l302 5q217 3 315 3q99 0 187 -11q-16 -57 -22 -99q-2 -9 -18 -208h-63v14q0 94 -13 172q-55 23 -121 31q-112 14 -224 14q-24 0 -107 -4t-119 -7q-4 -111 -6 -208l-4 -338q117 -6 215 -6q119 0 203 11q32 4 41 16t16 82l6 70h60v-19l-5 -208l5 -233 h-70l-3 68q-2 74 -13.5 92t-43.5 25q-57 12 -221 12q-67 0 -190 -5q-5 -100 -5 -297q0 -185 5 -281q144 -11 323 -11q127 0 181 8t100 27q12 31 24 84q22 89 29 134h66q-26 -202 -26 -335q-86 -13 -209 -13l-597 8q-13 0 -262 -8v63q105 1 138 16q14 6 20 19q10 20 14 105 q6 132 6 228v511q0 136 -3 266q-3 95 -14.5 112.5t-37 26t-144.5 10.5zM338 1765q0 32 23.5 54.5t61.5 22.5q24 0 46 -14q14 -9 48 -44l287 -296h-84l-310 189q-45 28 -58.5 46t-13.5 42z" />
<glyph unicode="&#xc9;" horiz-adv-x="1251" d="M50 1357v64l285 -6l302 5q217 3 315 3q99 0 187 -11q-16 -57 -22 -99q-2 -9 -18 -208h-63v14q0 94 -13 172q-55 23 -121 31q-112 14 -224 14q-24 0 -107 -4t-119 -7q-4 -111 -6 -208l-4 -338q117 -6 215 -6q119 0 203 11q32 4 41 16t16 82l6 70h60v-19l-5 -208l5 -233 h-70l-3 68q-2 74 -13.5 92t-43.5 25q-57 12 -221 12q-67 0 -190 -5q-5 -100 -5 -297q0 -185 5 -281q144 -11 323 -11q127 0 181 8t100 27q12 31 24 84q22 89 29 134h66q-26 -202 -26 -335q-86 -13 -209 -13l-597 8q-13 0 -262 -8v63q105 1 138 16q14 6 20 19q10 20 14 105 q6 132 6 228v511q0 136 -3 266q-3 95 -14.5 112.5t-37 26t-144.5 10.5zM469 1488l287 296q39 40 56.5 49t39.5 9q37 0 60 -22.5t23 -56.5q0 -22 -13.5 -40.5t-57.5 -45.5l-311 -189h-84z" />
<glyph unicode="&#xca;" horiz-adv-x="1251" d="M50 1357v64l285 -6l302 5q217 3 315 3q99 0 187 -11q-16 -57 -22 -99q-2 -9 -18 -208h-63v14q0 94 -13 172q-55 23 -121 31q-112 14 -224 14q-24 0 -107 -4t-119 -7q-4 -111 -6 -208l-4 -338q117 -6 215 -6q119 0 203 11q32 4 41 16t16 82l6 70h60v-19l-5 -208l5 -233 h-70l-3 68q-2 74 -13.5 92t-43.5 25q-57 12 -221 12q-67 0 -190 -5q-5 -100 -5 -297q0 -185 5 -281q144 -11 323 -11q127 0 181 8t100 27q12 31 24 84q22 89 29 134h66q-26 -202 -26 -335q-86 -13 -209 -13l-597 8q-13 0 -262 -8v63q105 1 138 16q14 6 20 19q10 20 14 105 q6 132 6 228v511q0 136 -3 266q-3 95 -14.5 112.5t-37 26t-144.5 10.5zM303 1492l257 345h133l252 -345h-85l-237 209l-240 -209h-80z" />
<glyph unicode="&#xcb;" horiz-adv-x="1251" d="M50 1357v64l285 -6l302 5q217 3 315 3q99 0 187 -11q-16 -57 -22 -99q-2 -9 -18 -208h-63v14q0 94 -13 172q-55 23 -121 31q-112 14 -224 14q-24 0 -107 -4t-119 -7q-4 -111 -6 -208l-4 -338q117 -6 215 -6q119 0 203 11q32 4 41 16t16 82l6 70h60v-19l-5 -208l5 -233 h-70l-3 68q-2 74 -13.5 92t-43.5 25q-57 12 -221 12q-67 0 -190 -5q-5 -100 -5 -297q0 -185 5 -281q144 -11 323 -11q127 0 181 8t100 27q12 31 24 84q22 89 29 134h66q-26 -202 -26 -335q-86 -13 -209 -13l-597 8q-13 0 -262 -8v63q105 1 138 16q14 6 20 19q10 20 14 105 q6 132 6 228v511q0 136 -3 266q-3 95 -14.5 112.5t-37 26t-144.5 10.5zM309 1657q0 46 32 77.5t77 31.5q46 0 77.5 -31.5t31.5 -77.5q0 -45 -32 -77t-77 -32t-77 32t-32 77zM722 1657q0 46 31.5 77.5t77.5 31.5q45 0 77 -31.5t32 -77.5q0 -45 -32 -77t-77 -32t-77 32t-32 77 z" />
<glyph unicode="&#xcc;" horiz-adv-x="690" d="M33 1765q0 32 23.5 54.5t61.5 22.5q24 0 46 -14q14 -9 48 -44l287 -296h-84l-310 189q-45 28 -58.5 46t-13.5 42zM47 0v64q118 2 144 10.5t36 23.5q12 20 15 97q1 21 4 284v463q0 136 -3 266q-3 95 -14.5 112.5t-37 26t-144.5 10.5v64q191 -7 295 -7q100 0 294 7v-64 q-119 -2 -144.5 -10.5t-35.5 -23.5q-12 -20 -15 -97q-1 -20 -4 -284v-463q0 -136 3 -265q3 -95 14.5 -113t37 -26.5t144.5 -10.5v-64q-213 8 -280 8z" />
<glyph unicode="&#xcd;" horiz-adv-x="690" d="M47 0v64q118 2 144 10.5t36 23.5q12 20 15 97q1 21 4 284v463q0 136 -3 266q-3 95 -14.5 112.5t-37 26t-144.5 10.5v64q191 -7 295 -7q100 0 294 7v-64q-119 -2 -144.5 -10.5t-35.5 -23.5q-12 -20 -15 -97q-1 -20 -4 -284v-463q0 -136 3 -265q3 -95 14.5 -113t37 -26.5 t144.5 -10.5v-64q-213 8 -280 8zM172 1488l287 296q39 40 56.5 49t39.5 9q37 0 60 -22.5t23 -56.5q0 -22 -13.5 -40.5t-57.5 -45.5l-311 -189h-84z" />
<glyph unicode="&#xce;" horiz-adv-x="690" d="M20 1492l257 345h133l252 -345h-85l-237 209l-240 -209h-80zM47 0v64q118 2 144 10.5t36 23.5q12 20 15 97q1 21 4 284v463q0 136 -3 266q-3 95 -14.5 112.5t-37 26t-144.5 10.5v64q191 -7 295 -7q100 0 294 7v-64q-119 -2 -144.5 -10.5t-35.5 -23.5q-12 -20 -15 -97 q-1 -20 -4 -284v-463q0 -136 3 -265q3 -95 14.5 -113t37 -26.5t144.5 -10.5v-64q-213 8 -280 8z" />
<glyph unicode="&#xcf;" horiz-adv-x="690" d="M26 1657q0 46 32 77.5t77 31.5q46 0 77.5 -31.5t31.5 -77.5q0 -45 -32 -77t-77 -32t-77 32t-32 77zM47 0v64q118 2 144 10.5t36 23.5q12 20 15 97q1 21 4 284v463q0 136 -3 266q-3 95 -14.5 112.5t-37 26t-144.5 10.5v64q191 -7 295 -7q100 0 294 7v-64 q-119 -2 -144.5 -10.5t-35.5 -23.5q-12 -20 -15 -97q-1 -20 -4 -284v-463q0 -136 3 -265q3 -95 14.5 -113t37 -26.5t144.5 -10.5v-64q-213 8 -280 8zM439 1657q0 46 31.5 77.5t77.5 31.5q45 0 77 -31.5t32 -77.5q0 -45 -32 -77t-77 -32t-77 32t-32 77z" />
<glyph unicode="&#xd0;" horiz-adv-x="1585" d="M26 692v77h178v222q0 98 -6 230q-4 83 -14 103q-7 13 -21 19q-33 14 -137 15v63q146 -6 258 -6q86 0 235 4q148 4 230 4q245 0 394 -62.5t253 -209.5t104 -359q0 -152 -49 -285t-133 -232.5t-180 -157.5t-201.5 -87.5t-289.5 -29.5q-61 0 -165 4q-136 4 -178 4 q-61 0 -214 -8v48q58 33 97 60q6 68 10 189q7 206 7 286v109h-178zM391 601l3 -310q1 -71 6 -182q110 -19 232 -19q126 0 222.5 22t165 62t132.5 118t98.5 199.5t34.5 251.5q0 186 -66.5 319.5t-200.5 204.5t-368 71q-123 0 -250 -19q-3 -49 -5 -174l-4 -145v-231h342v-77 h-342v-91z" />
<glyph unicode="&#xd1;" horiz-adv-x="1702" d="M49 1358v63q167 -4 210 -4q73 0 145 4q85 -111 125 -164l207 -255l302 -364q145 -174 233 -274q56 -66 94 -104v731q0 98 -7 230q-4 83 -13 103q-7 13 -21 19q-33 14 -137 15v63q118 -4 239 -4q114 0 207 4v-63q-104 -1 -137 -15q-14 -6 -20 -20q-10 -19 -14 -105 q-6 -132 -6 -227v-481q0 -146 5 -545l-103 30l-24 5q-6 2 -11 6q-7 5 -38 40q-83 94 -122 142l-129 163l-709 847v-767q0 -98 7 -231q4 -83 13 -102q7 -14 21 -20q33 -14 137 -15v-63q-88 7 -194 7q-116 0 -252 -7v63q105 1 138 16q14 6 20 19q10 20 14 105q6 132 6 228v815 q0 33 -4 43q-8 18 -36 43q-18 16 -41.5 20.5t-104.5 5.5zM523 1546q25 108 87 165t130 57q36 0 72 -9.5t103 -41.5t90.5 -39t43.5 -7q62 0 105 101h68q-29 -115 -97 -178q-52 -49 -122 -49q-36 0 -71 9.5t-101.5 41.5t-90 39t-42.5 7q-30 0 -59 -22.5t-48 -73.5h-68z" />
<glyph unicode="&#xd2;" horiz-adv-x="1610" d="M49 701q0 158 47.5 292t157.5 241t249 161.5t318 54.5q165 0 300 -46.5t221.5 -123t136.5 -167.5q38 -68 60.5 -160t22.5 -197q0 -337 -226.5 -561t-571.5 -224q-157 0 -293 51t-230 151.5t-143 244t-49 283.5zM257 784q0 -95 19 -193t48 -169q48 -120 125.5 -201.5 t173 -120t211.5 -38.5q161 0 280 78.5t177.5 221t58.5 328.5q0 159 -42 293q-26 82 -69 148.5t-102.5 116t-154.5 83.5t-205 34q-159 0 -279 -71t-180.5 -205.5t-60.5 -304.5zM518 1765q0 32 23.5 54.5t61.5 22.5q24 0 46 -14q14 -9 48 -44l287 -296h-84l-310 189 q-45 28 -58.5 46t-13.5 42z" />
<glyph unicode="&#xd3;" horiz-adv-x="1610" d="M49 701q0 158 47.5 292t157.5 241t249 161.5t318 54.5q165 0 300 -46.5t221.5 -123t136.5 -167.5q38 -68 60.5 -160t22.5 -197q0 -337 -226.5 -561t-571.5 -224q-157 0 -293 51t-230 151.5t-143 244t-49 283.5zM257 784q0 -95 19 -193t48 -169q48 -120 125.5 -201.5 t173 -120t211.5 -38.5q161 0 280 78.5t177.5 221t58.5 328.5q0 159 -42 293q-26 82 -69 148.5t-102.5 116t-154.5 83.5t-205 34q-159 0 -279 -71t-180.5 -205.5t-60.5 -304.5zM684 1488l287 296q39 40 56.5 49t39.5 9q37 0 60 -22.5t23 -56.5q0 -22 -13.5 -40.5t-57.5 -45.5 l-311 -189h-84z" />
<glyph unicode="&#xd4;" horiz-adv-x="1610" d="M49 701q0 158 47.5 292t157.5 241t249 161.5t318 54.5q165 0 300 -46.5t221.5 -123t136.5 -167.5q38 -68 60.5 -160t22.5 -197q0 -337 -226.5 -561t-571.5 -224q-157 0 -293 51t-230 151.5t-143 244t-49 283.5zM257 784q0 -95 19 -193t48 -169q48 -120 125.5 -201.5 t173 -120t211.5 -38.5q161 0 280 78.5t177.5 221t58.5 328.5q0 159 -42 293q-26 82 -69 148.5t-102.5 116t-154.5 83.5t-205 34q-159 0 -279 -71t-180.5 -205.5t-60.5 -304.5zM483 1492l257 345h133l252 -345h-85l-237 209l-240 -209h-80z" />
<glyph unicode="&#xd5;" horiz-adv-x="1610" d="M49 701q0 158 47.5 292t157.5 241t249 161.5t318 54.5q165 0 300 -46.5t221.5 -123t136.5 -167.5q38 -68 60.5 -160t22.5 -197q0 -337 -226.5 -561t-571.5 -224q-157 0 -293 51t-230 151.5t-143 244t-49 283.5zM257 784q0 -95 19 -193t48 -169q48 -120 125.5 -201.5 t173 -120t211.5 -38.5q161 0 280 78.5t177.5 221t58.5 328.5q0 159 -42 293q-26 82 -69 148.5t-102.5 116t-154.5 83.5t-205 34q-159 0 -279 -71t-180.5 -205.5t-60.5 -304.5zM489 1546q25 108 87 165t130 57q36 0 72 -9.5t103 -41.5t90.5 -39t43.5 -7q62 0 105 101h68 q-29 -115 -97 -178q-52 -49 -122 -49q-36 0 -71 9.5t-101.5 41.5t-90 39t-42.5 7q-30 0 -59 -22.5t-48 -73.5h-68z" />
<glyph unicode="&#xd6;" horiz-adv-x="1610" d="M49 701q0 158 47.5 292t157.5 241t249 161.5t318 54.5q165 0 300 -46.5t221.5 -123t136.5 -167.5q38 -68 60.5 -160t22.5 -197q0 -337 -226.5 -561t-571.5 -224q-157 0 -293 51t-230 151.5t-143 244t-49 283.5zM257 784q0 -95 19 -193t48 -169q48 -120 125.5 -201.5 t173 -120t211.5 -38.5q161 0 280 78.5t177.5 221t58.5 328.5q0 159 -42 293q-26 82 -69 148.5t-102.5 116t-154.5 83.5t-205 34q-159 0 -279 -71t-180.5 -205.5t-60.5 -304.5zM511 1657q0 46 32 77.5t77 31.5q46 0 77.5 -31.5t31.5 -77.5q0 -45 -32 -77t-77 -32t-77 32 t-32 77zM924 1657q0 46 31.5 77.5t77.5 31.5q45 0 77 -31.5t32 -77.5q0 -45 -32 -77t-77 -32t-77 32t-32 77z" />
<glyph unicode="&#xd7;" horiz-adv-x="1241" d="M176 246l359 354l-357 363l76 78l366 -355l373 356l89 -79l-377 -363l377 -358l-89 -78l-372 358l-366 -359z" />
<glyph unicode="&#xd8;" horiz-adv-x="1706" d="M73 35l185 178q-73 100 -110 203q-50 139 -50 297q0 323 213.5 529.5t568.5 206.5q151 0 272 -40.5t240 -130.5l179 166l63 -55l-181 -172q76 -91 109 -180q46 -127 46 -279q0 -373 -265 -600q-220 -188 -530 -188q-145 0 -272 43.5t-223 131.5l-184 -174zM304 782 q0 -218 101 -431l860 809q-46 61 -93 97q-64 48 -153.5 77.5t-191.5 29.5q-156 0 -277.5 -70t-183.5 -205t-62 -307zM454 272q61 -73 103 -106q56 -44 137 -74.5t187 -30.5q230 0 373.5 160t143.5 484q0 101 -16.5 175.5t-68.5 203.5z" />
<glyph unicode="&#xd9;" horiz-adv-x="1593" d="M30 1357v64q163 -8 303 -8q142 0 282 8v-64q-118 -2 -144 -10.5t-35 -23.5q-13 -20 -16 -97q-1 -20 -4 -284v-370q0 -215 27.5 -283.5t87.5 -113.5q46 -34 124 -54.5t174 -20.5q112 0 199 27.5t130.5 67t65 88.5t31 134.5t9.5 216.5v308q0 136 -4 266q-2 95 -13.5 112.5 t-37.5 26t-144 10.5v64q165 -8 241 -8q69 0 249 8v-64q-119 -2 -144.5 -10.5t-35.5 -23.5q-12 -20 -15 -97q-1 -20 -4 -284v-335q0 -247 -34.5 -345t-126.5 -173q-69 -56 -177.5 -87t-240.5 -31q-154 0 -267 36.5t-172 96t-81 121.5q-28 82 -28 275v442q0 136 -3 266 q-3 95 -14.5 112.5t-37 26t-144.5 10.5zM520 1765q0 32 23.5 54.5t61.5 22.5q24 0 46 -14q14 -9 48 -44l287 -296h-84l-310 189q-45 28 -58.5 46t-13.5 42z" />
<glyph unicode="&#xda;" horiz-adv-x="1593" d="M30 1357v64q163 -8 303 -8q142 0 282 8v-64q-118 -2 -144 -10.5t-35 -23.5q-13 -20 -16 -97q-1 -20 -4 -284v-370q0 -215 27.5 -283.5t87.5 -113.5q46 -34 124 -54.5t174 -20.5q112 0 199 27.5t130.5 67t65 88.5t31 134.5t9.5 216.5v308q0 136 -4 266q-2 95 -13.5 112.5 t-37.5 26t-144 10.5v64q165 -8 241 -8q69 0 249 8v-64q-119 -2 -144.5 -10.5t-35.5 -23.5q-12 -20 -15 -97q-1 -20 -4 -284v-335q0 -247 -34.5 -345t-126.5 -173q-69 -56 -177.5 -87t-240.5 -31q-154 0 -267 36.5t-172 96t-81 121.5q-28 82 -28 275v442q0 136 -3 266 q-3 95 -14.5 112.5t-37 26t-144.5 10.5zM676 1488l287 296q39 40 56.5 49t39.5 9q37 0 60 -22.5t23 -56.5q0 -22 -13.5 -40.5t-57.5 -45.5l-311 -189h-84z" />
<glyph unicode="&#xdb;" horiz-adv-x="1593" d="M30 1357v64q163 -8 303 -8q142 0 282 8v-64q-118 -2 -144 -10.5t-35 -23.5q-13 -20 -16 -97q-1 -20 -4 -284v-370q0 -215 27.5 -283.5t87.5 -113.5q46 -34 124 -54.5t174 -20.5q112 0 199 27.5t130.5 67t65 88.5t31 134.5t9.5 216.5v308q0 136 -4 266q-2 95 -13.5 112.5 t-37.5 26t-144 10.5v64q165 -8 241 -8q69 0 249 8v-64q-119 -2 -144.5 -10.5t-35.5 -23.5q-12 -20 -15 -97q-1 -20 -4 -284v-335q0 -247 -34.5 -345t-126.5 -173q-69 -56 -177.5 -87t-240.5 -31q-154 0 -267 36.5t-172 96t-81 121.5q-28 82 -28 275v442q0 136 -3 266 q-3 95 -14.5 112.5t-37 26t-144.5 10.5zM485 1492l257 345h133l252 -345h-85l-237 209l-240 -209h-80z" />
<glyph unicode="&#xdc;" horiz-adv-x="1593" d="M30 1357v64q163 -8 303 -8q142 0 282 8v-64q-118 -2 -144 -10.5t-35 -23.5q-13 -20 -16 -97q-1 -20 -4 -284v-370q0 -215 27.5 -283.5t87.5 -113.5q46 -34 124 -54.5t174 -20.5q112 0 199 27.5t130.5 67t65 88.5t31 134.5t9.5 216.5v308q0 136 -4 266q-2 95 -13.5 112.5 t-37.5 26t-144 10.5v64q165 -8 241 -8q69 0 249 8v-64q-119 -2 -144.5 -10.5t-35.5 -23.5q-12 -20 -15 -97q-1 -20 -4 -284v-335q0 -247 -34.5 -345t-126.5 -173q-69 -56 -177.5 -87t-240.5 -31q-154 0 -267 36.5t-172 96t-81 121.5q-28 82 -28 275v442q0 136 -3 266 q-3 95 -14.5 112.5t-37 26t-144.5 10.5zM526 1657q0 46 32 77.5t77 31.5q46 0 77.5 -31.5t31.5 -77.5q0 -45 -32 -77t-77 -32t-77 32t-32 77zM939 1657q0 46 31.5 77.5t77.5 31.5q45 0 77 -31.5t32 -77.5q0 -45 -32 -77t-77 -32t-77 32t-32 77z" />
<glyph unicode="&#xdd;" horiz-adv-x="1366" d="M23 1333v61l241 47q40 -14 55 -26.5t63 -76.5q71 -95 164 -259t198 -375q106 163 217 354l213 363h153v-27q-55 -61 -202 -265q-85 -118 -221 -343q-85 -139 -96 -170.5t-11 -59.5v-77q0 -136 3 -265q3 -95 14.5 -113t37 -26.5t144.5 -10.5v-64q-163 8 -282 8 q-114 0 -301 -8v64q118 2 144 10.5t35 23.5q13 20 16 97q1 21 4 284v117q-21 45 -41 81q-14 25 -102 172l-66 108q-78 128 -116 182q-73 104 -121 149q-26 25 -54.5 35t-88.5 10zM561 1488l287 296q39 40 56.5 49t39.5 9q37 0 60 -22.5t23 -56.5q0 -22 -13.5 -40.5 t-57.5 -45.5l-311 -189h-84z" />
<glyph unicode="&#xde;" horiz-adv-x="1237" d="M71 0v64q118 2 144 10.5t36 23.5q12 20 15 97q1 21 4 284v463q0 136 -3 266q-3 95 -14.5 112.5t-37 26t-144.5 10.5v64q201 -8 310 -8q115 0 287 8v-64q-127 -2 -156 -16q-21 -11 -30 -35q-16 -41 -16 -192q58 -3 134 -3l161 3q200 0 308 -88.5t108 -229.5 q0 -103 -58 -207.5t-164.5 -164t-239.5 -59.5q-52 0 -106 13l-21 76q68 -19 112 -19q114 0 193.5 84t79.5 217q0 107 -43.5 171t-113.5 92.5t-188 28.5q-70 0 -162 -17v-532q0 -133 3 -264q3 -96 16 -116q10 -15 35.5 -24t144.5 -11v-64q-177 8 -292 8q-114 0 -302 -8z" />
<glyph unicode="&#xdf;" horiz-adv-x="1139" d="M43 0v61q98 1 117 13.5t24 52.5q8 63 8 175v483h-128v37l128 67v73q0 86 13 140.5t55.5 117.5t125 136t150 103t153.5 30q94 0 169 -36t112.5 -106.5t37.5 -163.5q0 -104 -18.5 -200t-28 -127t-29.5 -49q-8 -1 -15 -1q-15 0 -26 6q-16 9 -52.5 20.5t-66.5 11.5 q-47 0 -76 -28t-29 -68q0 -34 22 -61.5t152 -100.5q98 -55 128 -78q42 -32 64 -73.5t22 -101.5q0 -113 -65 -202l-98 -83q-35 -29 -54.5 -39.5t-58.5 -20.5t-83 -10q-49 0 -95.5 14t-91.5 42v-34q-130 7 -237 7q-109 0 -229 -7zM359 337q0 -208 7 -233q5 -18 18 -26 q25 -15 125 -17q29 62 50 167h53v-94q39 -35 74 -50t75 -15q69 0 116 46t47 113q0 44 -19.5 77.5t-64.5 67.5q-30 24 -166 112q-77 50 -104.5 89.5t-27.5 85.5q0 38 24 83l145 172q34 17 59 21t53 4h26h23q12 47 17.5 88.5t5.5 76.5q0 137 -74 215t-191 78q-83 0 -148 -45.5 t-94 -126t-29 -251.5v-638z" />
<glyph unicode="&#xe0;" d="M82 219q0 69 23.5 126t56.5 90.5t67 49.5q58 27 188.5 58t258.5 46v8q0 89 -23 140q-24 53 -81 87t-139 34q-59 0 -103.5 -16t-54.5 -27l-18 -36q-27 -60 -40 -94l-53 14q1 23 1 63q0 42 -1 67q127 83 208 112q62 21 139 21q114 0 192 -43t116 -123q26 -56 26 -153 l-4 -183v-298q0 -48 8 -69q6 -15 19 -22q10 -6 42 -8l65 -6v-57q-82 7 -144 7q-60 0 -160 -7l5 176q-204 -154 -242 -173.5t-96 -19.5q-121 0 -188.5 64.5t-67.5 171.5zM164 1329q0 32 23.5 54.5t61.5 22.5q24 0 46 -14q14 -9 48 -44l287 -296h-84l-310 189q-45 28 -58.5 46 t-13.5 42zM258 261q0 -74 41 -115.5t114 -41.5q67 0 132.5 38.5t130.5 115.5v270q-130 -22 -222 -49t-130 -56q-23 -17 -40 -51q-26 -50 -26 -111z" />
<glyph unicode="&#xe1;" d="M82 219q0 69 23.5 126t56.5 90.5t67 49.5q58 27 188.5 58t258.5 46v8q0 89 -23 140q-24 53 -81 87t-139 34q-59 0 -103.5 -16t-54.5 -27l-18 -36q-27 -60 -40 -94l-53 14q1 23 1 63q0 42 -1 67q127 83 208 112q62 21 139 21q114 0 192 -43t116 -123q26 -56 26 -153 l-4 -183v-298q0 -48 8 -69q6 -15 19 -22q10 -6 42 -8l65 -6v-57q-82 7 -144 7q-60 0 -160 -7l5 176q-204 -154 -242 -173.5t-96 -19.5q-121 0 -188.5 64.5t-67.5 171.5zM258 261q0 -74 41 -115.5t114 -41.5q67 0 132.5 38.5t130.5 115.5v270q-130 -22 -222 -49t-130 -56 q-23 -17 -40 -51q-26 -50 -26 -111zM391 1052l287 296q39 40 56.5 49t39.5 9q37 0 60 -22.5t23 -56.5q0 -22 -13.5 -40.5t-57.5 -45.5l-311 -189h-84z" />
<glyph unicode="&#xe2;" d="M82 219q0 69 23.5 126t56.5 90.5t67 49.5q58 27 188.5 58t258.5 46v8q0 89 -23 140q-24 53 -81 87t-139 34q-59 0 -103.5 -16t-54.5 -27l-18 -36q-27 -60 -40 -94l-53 14q1 23 1 63q0 42 -1 67q127 83 208 112q62 21 139 21q114 0 192 -43t116 -123q26 -56 26 -153 l-4 -183v-298q0 -48 8 -69q6 -15 19 -22q10 -6 42 -8l65 -6v-57q-82 7 -144 7q-60 0 -160 -7l5 176q-204 -154 -242 -173.5t-96 -19.5q-121 0 -188.5 64.5t-67.5 171.5zM200 1056l257 345h133l252 -345h-85l-237 209l-240 -209h-80zM258 261q0 -74 41 -115.5t114 -41.5 q67 0 132.5 38.5t130.5 115.5v270q-130 -22 -222 -49t-130 -56q-23 -17 -40 -51q-26 -50 -26 -111z" />
<glyph unicode="&#xe3;" d="M82 219q0 69 23.5 126t56.5 90.5t67 49.5q58 27 188.5 58t258.5 46v8q0 89 -23 140q-24 53 -81 87t-139 34q-59 0 -103.5 -16t-54.5 -27l-18 -36q-27 -60 -40 -94l-53 14q1 23 1 63q0 42 -1 67q127 83 208 112q62 21 139 21q114 0 192 -43t116 -123q26 -56 26 -153 l-4 -183v-298q0 -48 8 -69q6 -15 19 -22q10 -6 42 -8l65 -6v-57q-82 7 -144 7q-60 0 -160 -7l5 176q-204 -154 -242 -173.5t-96 -19.5q-121 0 -188.5 64.5t-67.5 171.5zM171 1110q25 108 87 165t130 57q36 0 72 -9.5t103 -41.5t90.5 -39t43.5 -7q62 0 105 101h68 q-29 -115 -97 -178q-52 -49 -122 -49q-36 0 -71 9.5t-101.5 41.5t-90 39t-42.5 7q-30 0 -59 -22.5t-48 -73.5h-68zM258 261q0 -74 41 -115.5t114 -41.5q67 0 132.5 38.5t130.5 115.5v270q-130 -22 -222 -49t-130 -56q-23 -17 -40 -51q-26 -50 -26 -111z" />
<glyph unicode="&#xe4;" d="M82 219q0 69 23.5 126t56.5 90.5t67 49.5q58 27 188.5 58t258.5 46v8q0 89 -23 140q-24 53 -81 87t-139 34q-59 0 -103.5 -16t-54.5 -27l-18 -36q-27 -60 -40 -94l-53 14q1 23 1 63q0 42 -1 67q127 83 208 112q62 21 139 21q114 0 192 -43t116 -123q26 -56 26 -153 l-4 -183v-298q0 -48 8 -69q6 -15 19 -22q10 -6 42 -8l65 -6v-57q-82 7 -144 7q-60 0 -160 -7l5 176q-204 -154 -242 -173.5t-96 -19.5q-121 0 -188.5 64.5t-67.5 171.5zM206 1221q0 46 32 77.5t77 31.5q46 0 77.5 -31.5t31.5 -77.5q0 -45 -32 -77t-77 -32t-77 32t-32 77z M258 261q0 -74 41 -115.5t114 -41.5q67 0 132.5 38.5t130.5 115.5v270q-130 -22 -222 -49t-130 -56q-23 -17 -40 -51q-26 -50 -26 -111zM619 1221q0 46 31.5 77.5t77.5 31.5q45 0 77 -31.5t32 -77.5q0 -45 -32 -77t-77 -32t-77 32t-32 77z" />
<glyph unicode="&#xe5;" d="M82 219q0 69 23.5 126t56.5 90.5t67 49.5q58 27 188.5 58t258.5 46v8q0 89 -23 140q-24 53 -81 87t-139 34q-59 0 -103.5 -16t-54.5 -27l-18 -36q-27 -60 -40 -94l-53 14q1 23 1 63q0 42 -1 67q127 83 208 112q62 21 139 21q114 0 192 -43t116 -123q26 -56 26 -153 l-4 -183v-298q0 -48 8 -69q6 -15 19 -22q10 -6 42 -8l65 -6v-57q-82 7 -144 7q-60 0 -160 -7l5 176q-204 -154 -242 -173.5t-96 -19.5q-121 0 -188.5 64.5t-67.5 171.5zM258 261q0 -74 41 -115.5t114 -41.5q67 0 132.5 38.5t130.5 115.5v270q-130 -22 -222 -49t-130 -56 q-23 -17 -40 -51q-26 -50 -26 -111zM306 1245q0 86 61.5 145.5t163.5 59.5t163.5 -59.5t61.5 -145.5t-61.5 -145.5t-163.5 -59.5t-163.5 59.5t-61.5 145.5zM408 1245q0 -67 30.5 -108t92.5 -41t92.5 41t30.5 108t-30.5 108t-92.5 41t-92.5 -41t-30.5 -108z" />
<glyph unicode="&#xe6;" horiz-adv-x="1552" d="M45 224q0 57 24 115t59 92q12 13 59 32q76 31 167 52q137 31 289 39q-1 160 -63.5 231t-172.5 71q-42 0 -86 -10.5t-91 -32.5q-17 -30 -53 -124l-53 12v126l131 75q82 44 88 47q12 5 40 10q51 8 96 8q97 0 170 -36q53 -27 117 -104q67 57 105.5 81.5t96.5 42.5t132 18 q173 0 275 -101.5t102 -275.5q0 -36 -5 -75q-49 -17 -126 -24q-103 -10 -397 -10h-147q6 -132 45.5 -217.5t119.5 -135t184 -49.5q73 0 143 23t137 68l18 -20l-39 -73q-81 -51 -167 -76.5t-176 -25.5q-96 0 -171 29.5t-121.5 74t-91.5 115.5q-88 -63 -132 -98t-117 -98 q-65 -22 -127 -22q-135 0 -198.5 77t-63.5 169zM223 269q0 -72 44.5 -117.5t118.5 -45.5q50 0 96 16.5t90 53t71 75.5v237q-100 -3 -199 -28.5t-174 -61.5q-23 -32 -35 -64t-12 -65zM802 559q63 -6 260 -6q161 0 235 6v16q0 116 -26 184q-28 73 -83 108t-127 35 q-98 0 -165 -59q-91 -80 -94 -284z" />
<glyph unicode="&#xe7;" horiz-adv-x="909" d="M80 451q0 226 116 337q33 33 125.5 85.5t129.5 67.5q68 29 161 29q92 0 164 -19q46 -12 92 -40q-20 -127 -30 -260h-57q-8 129 -30 148q-89 69 -216 69q-275 0 -275 -330q0 -200 95 -328.5t268 -128.5q94 0 224 60l21 -26l-40 -67q-120 -64 -261 -70l-47 -112q34 6 61 6 q85 0 129.5 -41t44.5 -100q0 -69 -61.5 -120.5t-182.5 -51.5q-98 0 -189 32l31 67q70 -24 132 -24q109 0 109 85q0 77 -103 77q-25 0 -60 -10l-18 15l80 178q-188 13 -300.5 137.5t-112.5 334.5z" />
<glyph unicode="&#xe8;" horiz-adv-x="981" d="M51 452q0 115 31.5 207.5t71.5 136.5q29 32 90 73.5t121 65.5q79 33 171 33q112 0 202.5 -51t132.5 -139t42 -199q0 -28 -4 -68q-72 -14 -129 -18q-108 -8 -216 -8h-321q2 -143 49.5 -231.5t131 -130.5t173.5 -42q61 0 121.5 19.5t149.5 71.5l16 -17l-32 -72 q-69 -43 -101 -57q-47 -21 -107.5 -35.5t-127.5 -14.5q-132 0 -239 55t-166.5 164.5t-59.5 256.5zM164 1329q0 32 23.5 54.5t61.5 22.5q24 0 46 -14q14 -9 48 -44l287 -296h-84l-310 189q-45 28 -58.5 46t-13.5 42zM243 564q28 -3 106 -6q149 -5 205 -5q133 0 175 5 q1 24 1 37q0 158 -64 232t-171 74q-113 0 -182 -81t-70 -256z" />
<glyph unicode="&#xe9;" horiz-adv-x="981" d="M51 452q0 115 31.5 207.5t71.5 136.5q29 32 90 73.5t121 65.5q79 33 171 33q112 0 202.5 -51t132.5 -139t42 -199q0 -28 -4 -68q-72 -14 -129 -18q-108 -8 -216 -8h-321q2 -143 49.5 -231.5t131 -130.5t173.5 -42q61 0 121.5 19.5t149.5 71.5l16 -17l-32 -72 q-69 -43 -101 -57q-47 -21 -107.5 -35.5t-127.5 -14.5q-132 0 -239 55t-166.5 164.5t-59.5 256.5zM243 564q28 -3 106 -6q149 -5 205 -5q133 0 175 5q1 24 1 37q0 158 -64 232t-171 74q-113 0 -182 -81t-70 -256zM344 1052l287 296q39 40 56.5 49t39.5 9q37 0 60 -22.5 t23 -56.5q0 -22 -13.5 -40.5t-57.5 -45.5l-311 -189h-84z" />
<glyph unicode="&#xea;" horiz-adv-x="981" d="M51 452q0 115 31.5 207.5t71.5 136.5q29 32 90 73.5t121 65.5q79 33 171 33q112 0 202.5 -51t132.5 -139t42 -199q0 -28 -4 -68q-72 -14 -129 -18q-108 -8 -216 -8h-321q2 -143 49.5 -231.5t131 -130.5t173.5 -42q61 0 121.5 19.5t149.5 71.5l16 -17l-32 -72 q-69 -43 -101 -57q-47 -21 -107.5 -35.5t-127.5 -14.5q-132 0 -239 55t-166.5 164.5t-59.5 256.5zM210 1056l257 345h133l252 -345h-85l-237 209l-240 -209h-80zM243 564q28 -3 106 -6q149 -5 205 -5q133 0 175 5q1 24 1 37q0 158 -64 232t-171 74q-113 0 -182 -81t-70 -256 z" />
<glyph unicode="&#xeb;" horiz-adv-x="981" d="M51 452q0 115 31.5 207.5t71.5 136.5q29 32 90 73.5t121 65.5q79 33 171 33q112 0 202.5 -51t132.5 -139t42 -199q0 -28 -4 -68q-72 -14 -129 -18q-108 -8 -216 -8h-321q2 -143 49.5 -231.5t131 -130.5t173.5 -42q61 0 121.5 19.5t149.5 71.5l16 -17l-32 -72 q-69 -43 -101 -57q-47 -21 -107.5 -35.5t-127.5 -14.5q-132 0 -239 55t-166.5 164.5t-59.5 256.5zM216 1221q0 46 32 77.5t77 31.5q46 0 77.5 -31.5t31.5 -77.5q0 -45 -32 -77t-77 -32t-77 32t-32 77zM243 564q28 -3 106 -6q149 -5 205 -5q133 0 175 5q1 24 1 37 q0 158 -64 232t-171 74q-113 0 -182 -81t-70 -256zM629 1221q0 46 31.5 77.5t77.5 31.5q45 0 77 -31.5t32 -77.5q0 -45 -32 -77t-77 -32t-77 32t-32 77z" />
<glyph unicode="&#xec;" horiz-adv-x="588" d="M-24 1329q0 32 23.5 54.5t61.5 22.5q24 0 46 -14q14 -9 48 -44l287 -296h-84l-310 189q-45 28 -58.5 46t-13.5 42zM41 0v57l95 1q21 1 32.5 7.5t17.5 16.5q11 20 14 71q0 13 6 287v176q0 149 -10 177q-6 15 -21.5 22.5t-133.5 7.5v57q194 22 326 84l22 -16 q-8 -213 -8 -326v-182q5 -260 6 -281q1 -50 11 -73q5 -9 13 -15.5t24 -10.5q6 -1 111 -3v-57q-152 7 -243 7q-80 0 -262 -7z" />
<glyph unicode="&#xed;" horiz-adv-x="588" d="M41 0v57l95 1q21 1 32.5 7.5t17.5 16.5q11 20 14 71q0 13 6 287v176q0 149 -10 177q-6 15 -21.5 22.5t-133.5 7.5v57q194 22 326 84l22 -16q-8 -213 -8 -326v-182q5 -260 6 -281q1 -50 11 -73q5 -9 13 -15.5t24 -10.5q6 -1 111 -3v-57q-152 7 -243 7q-80 0 -262 -7z M164 1052l287 296q39 40 56.5 49t39.5 9q37 0 60 -22.5t23 -56.5q0 -22 -13.5 -40.5t-57.5 -45.5l-311 -189h-84z" />
<glyph unicode="&#xee;" horiz-adv-x="588" d="M20 1056l257 345h133l252 -345h-85l-237 209l-240 -209h-80zM41 0v57l95 1q21 1 32.5 7.5t17.5 16.5q11 20 14 71q0 13 6 287v176q0 149 -10 177q-6 15 -21.5 22.5t-133.5 7.5v57q194 22 326 84l22 -16q-8 -213 -8 -326v-182q5 -260 6 -281q1 -50 11 -73q5 -9 13 -15.5 t24 -10.5q6 -1 111 -3v-57q-152 7 -243 7q-80 0 -262 -7z" />
<glyph unicode="&#xef;" horiz-adv-x="588" d="M26 1221q0 46 32 77.5t77 31.5q46 0 77.5 -31.5t31.5 -77.5q0 -45 -32 -77t-77 -32t-77 32t-32 77zM41 0v57l95 1q21 1 32.5 7.5t17.5 16.5q11 20 14 71q0 13 6 287v176q0 149 -10 177q-6 15 -21.5 22.5t-133.5 7.5v57q194 22 326 84l22 -16q-8 -213 -8 -326v-182 q5 -260 6 -281q1 -50 11 -73q5 -9 13 -15.5t24 -10.5q6 -1 111 -3v-57q-152 7 -243 7q-80 0 -262 -7zM439 1221q0 46 31.5 77.5t77.5 31.5q45 0 77 -31.5t32 -77.5q0 -45 -32 -77t-77 -32t-77 32t-32 77z" />
<glyph unicode="&#xf0;" horiz-adv-x="1118" d="M76 452q0 154 61 272.5t176.5 182.5t252.5 64q59 0 108 -11t113 -40q-39 94 -88.5 165t-110.5 127l-287 -135l-37 60l278 131q-46 43 -100.5 80t-147.5 86l68 65q115 -66 192 -119q37 -25 81 -62l292 140l36 -58l-265 -132q114 -114 185 -216.5t115 -235t44 -271.5 q0 -166 -65 -299t-183.5 -205t-265.5 -72q-196 0 -324 132t-128 351zM266 541q0 -74 13.5 -154t39.5 -146t65.5 -112.5t85 -69t101.5 -22.5q139 0 215 139t76 322q0 199 -89 302t-220 103q-83 0 -149.5 -40t-102 -123.5t-35.5 -198.5z" />
<glyph unicode="&#xf1;" horiz-adv-x="1192" d="M28 0v57l95 1q21 1 32.5 7.5t17.5 16.5q11 20 14 71q0 13 6 287v119q0 80 -3 172q-3 59 -9.5 70t-22.5 17q-13 4 -95 4h-35v57q202 28 295 73q20 10 27 10t11 -5t4 -15q0 -7 -1 -16q-3 -36 -6 -152l186 159q82 30 155 30q81 0 153.5 -33t109 -83t48.5 -126q7 -45 7 -251 v-177q0 -130 7 -177q5 -30 15.5 -41.5t32.5 -14.5l107 -3v-57q-98 7 -163 7q-56 0 -186 -7q14 247 14 312v168q0 157 -12 206q-17 67 -77 108t-145 41q-75 0 -137 -35.5t-88.5 -82t-26.5 -156.5v-121q6 -260 6 -281q2 -50 12 -73q4 -9 12 -15.5t25 -10.5q6 -1 110 -3v-57 q-122 7 -221 7q-84 0 -274 -7zM249 1110q25 108 87 165t130 57q36 0 72 -9.5t103 -41.5t90.5 -39t43.5 -7q62 0 105 101h68q-29 -115 -97 -178q-52 -49 -122 -49q-36 0 -71 9.5t-101.5 41.5t-90 39t-42.5 7q-30 0 -59 -22.5t-48 -73.5h-68z" />
<glyph unicode="&#xf2;" horiz-adv-x="1118" d="M68 460q0 224 142.5 365.5t365.5 141.5q210 0 342 -132t132 -341q0 -146 -68 -267t-192 -189.5t-273 -68.5q-116 0 -196.5 39t-130.5 98t-76 121q-46 109 -46 233zM164 1329q0 32 23.5 54.5t61.5 22.5q24 0 46 -14q14 -9 48 -44l287 -296h-84l-310 189q-45 28 -58.5 46 t-13.5 42zM257 534q0 -123 41 -250t118.5 -185.5t168.5 -58.5q116 0 194 92t78 283q0 159 -46.5 274.5t-118.5 163t-159 47.5q-123 0 -199.5 -89t-76.5 -277z" />
<glyph unicode="&#xf3;" horiz-adv-x="1118" d="M68 460q0 224 142.5 365.5t365.5 141.5q210 0 342 -132t132 -341q0 -146 -68 -267t-192 -189.5t-273 -68.5q-116 0 -196.5 39t-130.5 98t-76 121q-46 109 -46 233zM257 534q0 -123 41 -250t118.5 -185.5t168.5 -58.5q116 0 194 92t78 283q0 159 -46.5 274.5t-118.5 163 t-159 47.5q-123 0 -199.5 -89t-76.5 -277zM402 1052l287 296q39 40 56.5 49t39.5 9q37 0 60 -22.5t23 -56.5q0 -22 -13.5 -40.5t-57.5 -45.5l-311 -189h-84z" />
<glyph unicode="&#xf4;" horiz-adv-x="1118" d="M68 460q0 224 142.5 365.5t365.5 141.5q210 0 342 -132t132 -341q0 -146 -68 -267t-192 -189.5t-273 -68.5q-116 0 -196.5 39t-130.5 98t-76 121q-46 109 -46 233zM257 534q0 -123 41 -250t118.5 -185.5t168.5 -58.5q116 0 194 92t78 283q0 159 -46.5 274.5t-118.5 163 t-159 47.5q-123 0 -199.5 -89t-76.5 -277zM258 1056l257 345h133l252 -345h-85l-237 209l-240 -209h-80z" />
<glyph unicode="&#xf5;" horiz-adv-x="1118" d="M68 460q0 224 142.5 365.5t365.5 141.5q210 0 342 -132t132 -341q0 -146 -68 -267t-192 -189.5t-273 -68.5q-116 0 -196.5 39t-130.5 98t-76 121q-46 109 -46 233zM229 1110q25 108 87 165t130 57q36 0 72 -9.5t103 -41.5t90.5 -39t43.5 -7q62 0 105 101h68 q-29 -115 -97 -178q-52 -49 -122 -49q-36 0 -71 9.5t-101.5 41.5t-90 39t-42.5 7q-30 0 -59 -22.5t-48 -73.5h-68zM257 534q0 -123 41 -250t118.5 -185.5t168.5 -58.5q116 0 194 92t78 283q0 159 -46.5 274.5t-118.5 163t-159 47.5q-123 0 -199.5 -89t-76.5 -277z" />
<glyph unicode="&#xf6;" horiz-adv-x="1118" d="M68 460q0 224 142.5 365.5t365.5 141.5q210 0 342 -132t132 -341q0 -146 -68 -267t-192 -189.5t-273 -68.5q-116 0 -196.5 39t-130.5 98t-76 121q-46 109 -46 233zM257 534q0 -123 41 -250t118.5 -185.5t168.5 -58.5q116 0 194 92t78 283q0 159 -46.5 274.5t-118.5 163 t-159 47.5q-123 0 -199.5 -89t-76.5 -277zM264 1221q0 46 32 77.5t77 31.5q46 0 77.5 -31.5t31.5 -77.5q0 -45 -32 -77t-77 -32t-77 32t-32 77zM677 1221q0 46 31.5 77.5t77.5 31.5q45 0 77 -31.5t32 -77.5q0 -45 -32 -77t-77 -32t-77 32t-32 77z" />
<glyph unicode="&#xf7;" horiz-adv-x="1124" d="M14 556v91h1040v-91h-1040zM419 275q0 50 33 85t81 35q47 0 80.5 -35t33.5 -85q0 -49 -34 -84t-80 -35q-48 0 -81 35t-33 84zM419 927q0 49 33 84.5t81 35.5q47 0 80.5 -35.5t33.5 -84.5q0 -50 -34 -85t-80 -35q-48 0 -81 35t-33 85z" />
<glyph unicode="&#xf8;" horiz-adv-x="1139" d="M40 12l130 130q-48 76 -70.5 151t-22.5 167q0 148 64.5 267t184.5 179.5t260 60.5q101 0 177 -28t141 -79l123 121l56 -54l-124 -123q53 -74 75 -141t22 -159q0 -155 -65 -275.5t-190.5 -189t-275.5 -68.5q-94 0 -164 26.5t-138 84.5l-127 -122zM264 551q0 -123 45 -275 l483 475q-48 79 -108 115t-138 36q-81 0 -145 -38t-100.5 -121.5t-36.5 -191.5zM342 200q46 -75 98 -112q69 -48 153 -48q76 0 139.5 40.5t99.5 127.5t36 217q0 58 -8 109t-32 140z" />
<glyph unicode="&#xf9;" horiz-adv-x="1235" d="M26 821v57q215 24 312 77q16 9 25 9q7 0 11.5 -5t4.5 -15q0 -8 -1 -20q-4 -32 -7 -123q-6 -167 -6 -224v-195q0 -122 16.5 -171.5t64 -79t117.5 -29.5q48 0 95.5 16.5t85.5 47.5q28 23 57 62q22 29 29 44.5t9 45.5q5 88 5 175v84q0 26 -3 131q-2 66 -9 86q-4 10 -13 16 q-15 10 -53 10q-55 0 -87 1v57q215 24 312 77q16 9 25 9q7 0 11.5 -5t4.5 -15q0 -8 -1 -20q-3 -32 -7 -127q-6 -163 -6 -220v-137l2 -139q3 -121 4 -142q1 -50 11 -73q5 -9 13 -15.5t24 -10.5q6 -1 111 -3v-57q-131 7 -198 7q-74 0 -150 -7q6 81 9 182q-60 -48 -143 -131 q-19 -19 -37 -28q-43 -24 -86 -34.5t-103 -10.5q-81 0 -135.5 22t-93.5 67q-29 33 -44.5 85.5t-15.5 126.5q0 35 2.5 66t2.5 61v171q0 26 -3 131q-2 66 -9 86q-4 10 -13 16q-15 10 -53 10q-55 0 -87 1zM303 1329q0 32 23.5 54.5t61.5 22.5q24 0 46 -14q14 -9 48 -44 l287 -296h-84l-310 189q-45 28 -58.5 46t-13.5 42z" />
<glyph unicode="&#xfa;" horiz-adv-x="1235" d="M26 821v57q215 24 312 77q16 9 25 9q7 0 11.5 -5t4.5 -15q0 -8 -1 -20q-4 -32 -7 -123q-6 -167 -6 -224v-195q0 -122 16.5 -171.5t64 -79t117.5 -29.5q48 0 95.5 16.5t85.5 47.5q28 23 57 62q22 29 29 44.5t9 45.5q5 88 5 175v84q0 26 -3 131q-2 66 -9 86q-4 10 -13 16 q-15 10 -53 10q-55 0 -87 1v57q215 24 312 77q16 9 25 9q7 0 11.5 -5t4.5 -15q0 -8 -1 -20q-3 -32 -7 -127q-6 -163 -6 -220v-137l2 -139q3 -121 4 -142q1 -50 11 -73q5 -9 13 -15.5t24 -10.5q6 -1 111 -3v-57q-131 7 -198 7q-74 0 -150 -7q6 81 9 182q-60 -48 -143 -131 q-19 -19 -37 -28q-43 -24 -86 -34.5t-103 -10.5q-81 0 -135.5 22t-93.5 67q-29 33 -44.5 85.5t-15.5 126.5q0 35 2.5 66t2.5 61v171q0 26 -3 131q-2 66 -9 86q-4 10 -13 16q-15 10 -53 10q-55 0 -87 1zM457 1052l287 296q39 40 56.5 49t39.5 9q37 0 60 -22.5t23 -56.5 q0 -22 -13.5 -40.5t-57.5 -45.5l-311 -189h-84z" />
<glyph unicode="&#xfb;" horiz-adv-x="1235" d="M26 821v57q215 24 312 77q16 9 25 9q7 0 11.5 -5t4.5 -15q0 -8 -1 -20q-4 -32 -7 -123q-6 -167 -6 -224v-195q0 -122 16.5 -171.5t64 -79t117.5 -29.5q48 0 95.5 16.5t85.5 47.5q28 23 57 62q22 29 29 44.5t9 45.5q5 88 5 175v84q0 26 -3 131q-2 66 -9 86q-4 10 -13 16 q-15 10 -53 10q-55 0 -87 1v57q215 24 312 77q16 9 25 9q7 0 11.5 -5t4.5 -15q0 -8 -1 -20q-3 -32 -7 -127q-6 -163 -6 -220v-137l2 -139q3 -121 4 -142q1 -50 11 -73q5 -9 13 -15.5t24 -10.5q6 -1 111 -3v-57q-131 7 -198 7q-74 0 -150 -7q6 81 9 182q-60 -48 -143 -131 q-19 -19 -37 -28q-43 -24 -86 -34.5t-103 -10.5q-81 0 -135.5 22t-93.5 67q-29 33 -44.5 85.5t-15.5 126.5q0 35 2.5 66t2.5 61v171q0 26 -3 131q-2 66 -9 86q-4 10 -13 16q-15 10 -53 10q-55 0 -87 1zM266 1056l257 345h133l252 -345h-85l-237 209l-240 -209h-80z" />
<glyph unicode="&#xfc;" horiz-adv-x="1235" d="M26 821v57q215 24 312 77q16 9 25 9q7 0 11.5 -5t4.5 -15q0 -8 -1 -20q-4 -32 -7 -123q-6 -167 -6 -224v-195q0 -122 16.5 -171.5t64 -79t117.5 -29.5q48 0 95.5 16.5t85.5 47.5q28 23 57 62q22 29 29 44.5t9 45.5q5 88 5 175v84q0 26 -3 131q-2 66 -9 86q-4 10 -13 16 q-15 10 -53 10q-55 0 -87 1v57q215 24 312 77q16 9 25 9q7 0 11.5 -5t4.5 -15q0 -8 -1 -20q-3 -32 -7 -127q-6 -163 -6 -220v-137l2 -139q3 -121 4 -142q1 -50 11 -73q5 -9 13 -15.5t24 -10.5q6 -1 111 -3v-57q-131 7 -198 7q-74 0 -150 -7q6 81 9 182q-60 -48 -143 -131 q-19 -19 -37 -28q-43 -24 -86 -34.5t-103 -10.5q-81 0 -135.5 22t-93.5 67q-29 33 -44.5 85.5t-15.5 126.5q0 35 2.5 66t2.5 61v171q0 26 -3 131q-2 66 -9 86q-4 10 -13 16q-15 10 -53 10q-55 0 -87 1zM309 1221q0 46 32 77.5t77 31.5q46 0 77.5 -31.5t31.5 -77.5 q0 -45 -32 -77t-77 -32t-77 32t-32 77zM722 1221q0 46 31.5 77.5t77.5 31.5q45 0 77 -31.5t32 -77.5q0 -45 -32 -77t-77 -32t-77 32t-32 77z" />
<glyph unicode="&#xfd;" horiz-adv-x="1139" d="M16 884v56q124 -7 245 -7q118 0 227 7v-56q-103 -7 -118 -13q-26 -10 -26 -36q0 -16 17 -66q39 -123 74 -210l63 -156q57 -140 96 -227l53 118q31 70 109 266t91 242q4 16 4 28q0 19 -15.5 29.5t-120.5 20.5v60q116 -7 205 -7q90 0 178 7l-10 -60q-51 -2 -79 -22 t-84.5 -134.5t-209.5 -450.5l-231 -540q-56 -131 -97 -187t-98 -85t-125 -29q-33 0 -59.5 7.5t-59.5 25.5l51 154h24q19 -16 32.5 -25.5t29 -14.5t45.5 -5q31 0 60.5 13.5t55 42.5t60.5 100q53 107 95 218q-32 90 -77 202l-159 394q-71 176 -116 270q-18 37 -38.5 49.5 t-91.5 20.5zM449 1052l287 296q39 40 56.5 49t39.5 9q37 0 60 -22.5t23 -56.5q0 -22 -13.5 -40.5t-57.5 -45.5l-311 -189h-84z" />
<glyph unicode="&#xfe;" horiz-adv-x="1231" d="M41 1355v59q226 28 314 70q13 6 20 6t11 -4.5t4 -12.5q0 -7 -2 -20l-1 -33q-5 -179 -6 -305l-2 -156v-200q169 157 211 177q55 27 164 27q127 0 219 -57.5t133.5 -149t41.5 -195.5q0 -63 -14 -119t-37 -105.5t-50.5 -91t-51.5 -62.5q-14 -13 -80.5 -52.5t-125 -81.5 t-84.5 -50q-57 -18 -121 -18q-50 0 -97.5 12t-107.5 41v-159q5 -253 6 -279q2 -49 12 -72q4 -11 12.5 -17.5t24.5 -9.5q9 -2 119 -4v-57q-124 5 -329 5q-115 0 -177 -5v57l94 1q22 1 33.5 7.5t17.5 16.5q11 20 13 71q1 13 7 286v980q0 167 -6 345q-4 120 -11 134 q-5 10 -16 14q-15 7 -138 7zM379 206q53 -54 121 -85t143 -31q91 0 165.5 45.5t118 141.5t43.5 209q0 109 -41.5 189.5t-117.5 121t-152 40.5q-57 0 -113 -22.5t-101 -65.5t-60 -82q-6 -19 -6 -73v-388z" />
<glyph unicode="&#xff;" horiz-adv-x="1139" d="M16 884v56q124 -7 245 -7q118 0 227 7v-56q-103 -7 -118 -13q-26 -10 -26 -36q0 -16 17 -66q39 -123 74 -210l63 -156q57 -140 96 -227l53 118q31 70 109 266t91 242q4 16 4 28q0 19 -15.5 29.5t-120.5 20.5v60q116 -7 205 -7q90 0 178 7l-10 -60q-51 -2 -79 -22 t-84.5 -134.5t-209.5 -450.5l-231 -540q-56 -131 -97 -187t-98 -85t-125 -29q-33 0 -59.5 7.5t-59.5 25.5l51 154h24q19 -16 32.5 -25.5t29 -14.5t45.5 -5q31 0 60.5 13.5t55 42.5t60.5 100q53 107 95 218q-32 90 -77 202l-159 394q-71 176 -116 270q-18 37 -38.5 49.5 t-91.5 20.5zM286 1221q0 46 32 77.5t77 31.5q46 0 77.5 -31.5t31.5 -77.5q0 -45 -32 -77t-77 -32t-77 32t-32 77zM699 1221q0 46 31.5 77.5t77.5 31.5q45 0 77 -31.5t32 -77.5q0 -45 -32 -77t-77 -32t-77 32t-32 77z" />
<glyph unicode="&#x152;" horiz-adv-x="2044" d="M72 700q0 177 58.5 314t150.5 223.5t203 137.5q157 71 333 71q58 0 169 -13q175 -19 282 -19q21 0 71 1l170 5q101 3 167 3q130 0 257 -15q-13 -48 -20 -96q-11 -75 -18 -210h-63q-2 84 -3 105q-2 32 -10 84q-55 19 -112 27q-88 13 -187 13q-89 0 -209 -9 q-14 -133 -14 -333v-212q60 -7 208 -7q66 0 144 7q57 5 68 12t16 24q8 28 11 136h67q-7 -94 -7 -228q0 -137 7 -234h-62l-13 140q-5 20 -15 29q-14 12 -57 20q-61 10 -141 10q-25 0 -135 -3q-56 -1 -91 -4v-381q0 -82 4 -195q177 -11 297 -11q109 0 165 8t110 28 q15 42 25 82t27 134h64q-13 -114 -17 -172t-9 -161q-56 -11 -248 -11l-393 8q-116 0 -307 -18q-155 -15 -227 -15q-144 0 -267.5 42.5t-208 116.5t-136 161.5t-78 186.5t-26.5 218zM276 769q0 -186 63 -351t190.5 -262.5t300.5 -97.5q147 0 280 67q5 56 8 128q4 118 4 171 v421q0 277 -13 429q-141 87 -308 87q-150 0 -273.5 -66t-187.5 -201t-64 -325z" />
<glyph unicode="&#x153;" horiz-adv-x="1694" d="M53 480q0 251 173 385q133 103 322 103q85 0 148.5 -20.5t110.5 -53.5q36 -24 87 -77q55 53 99 82.5t107 50t144 20.5q176 0 276.5 -101.5t100.5 -291.5q0 -26 -3 -59q-68 -17 -126 -22q-86 -7 -331 -7h-196q0 -131 45 -219t123.5 -135t179.5 -47q68 0 132 20.5t124 60.5 l15 -18l-33 -75q-52 -40 -140.5 -69t-178.5 -29q-117 0 -202.5 44t-155.5 129q-51 -57 -90 -84.5t-81.5 -48t-90 -30.5t-101.5 -10q-126 0 -232.5 55.5t-166 173.5t-59.5 273zM234 559q0 -64 13.5 -149t37.5 -144q32 -83 74 -130t89.5 -69t105.5 -22q108 0 181.5 91.5 t73.5 291.5q0 243 -103 374q-78 100 -203 100q-75 0 -138.5 -39.5t-97 -112t-33.5 -191.5zM965 568q102 -7 365 -7q68 0 115 2q2 41 2 59q0 89 -30 155.5t-83 98.5t-115 32q-68 0 -127 -37.5t-89 -105t-38 -197.5z" />
<glyph unicode="&#x178;" horiz-adv-x="1366" d="M23 1333v61l241 47q40 -14 55 -26.5t63 -76.5q71 -95 164 -259t198 -375q106 163 217 354l213 363h153v-27q-55 -61 -202 -265q-85 -118 -221 -343q-85 -139 -96 -170.5t-11 -59.5v-77q0 -136 3 -265q3 -95 14.5 -113t37 -26.5t144.5 -10.5v-64q-163 8 -282 8 q-114 0 -301 -8v64q118 2 144 10.5t35 23.5q13 20 16 97q1 21 4 284v117q-21 45 -41 81q-14 25 -102 172l-66 108q-78 128 -116 182q-73 104 -121 149q-26 25 -54.5 35t-88.5 10zM423 1657q0 46 32 77.5t77 31.5q46 0 77.5 -31.5t31.5 -77.5q0 -45 -32 -77t-77 -32t-77 32 t-32 77zM836 1657q0 46 31.5 77.5t77.5 31.5q45 0 77 -31.5t32 -77.5q0 -45 -32 -77t-77 -32t-77 32t-32 77z" />
<glyph unicode="&#x2c6;" horiz-adv-x="682" d="M20 1115l257 345h133l252 -345h-85l-237 209l-240 -209h-80z" />
<glyph unicode="&#x2dc;" horiz-adv-x="682" d="M-9 1169q25 108 87 165t130 57q36 0 72 -9.5t103 -41.5t90.5 -39t43.5 -7q62 0 105 101h68q-29 -115 -97 -178q-52 -49 -122 -49q-36 0 -71 9.5t-101.5 41.5t-90 39t-42.5 7q-30 0 -59 -22.5t-48 -73.5h-68z" />
<glyph unicode="&#x2000;" horiz-adv-x="943" />
<glyph unicode="&#x2001;" horiz-adv-x="1886" />
<glyph unicode="&#x2002;" horiz-adv-x="943" />
<glyph unicode="&#x2003;" horiz-adv-x="1886" />
<glyph unicode="&#x2004;" horiz-adv-x="628" />
<glyph unicode="&#x2005;" horiz-adv-x="471" />
<glyph unicode="&#x2006;" horiz-adv-x="314" />
<glyph unicode="&#x2007;" horiz-adv-x="314" />
<glyph unicode="&#x2008;" horiz-adv-x="235" />
<glyph unicode="&#x2009;" horiz-adv-x="377" />
<glyph unicode="&#x200a;" horiz-adv-x="104" />
<glyph unicode="&#x2010;" horiz-adv-x="682" d="M45 438v14l45 134h535v-15l-48 -133h-532z" />
<glyph unicode="&#x2011;" horiz-adv-x="682" d="M45 438v14l45 134h535v-15l-48 -133h-532z" />
<glyph unicode="&#x2012;" horiz-adv-x="682" d="M45 438v14l45 134h535v-15l-48 -133h-532z" />
<glyph unicode="&#x2013;" d="M-1 446v118h1027v-118h-1027z" />
<glyph unicode="&#x2014;" horiz-adv-x="2048" d="M0 446v118h2048v-118h-2048z" />
<glyph unicode="&#x2018;" horiz-adv-x="569" d="M45 931q69 169 129.5 270.5t133.5 187.5l92 48l30 -23q-54 -83 -76 -130q-31 -63 -52 -141t-33 -179q-108 -25 -196 -57z" />
<glyph unicode="&#x2019;" horiz-adv-x="569" d="M45 930q54 83 76 129q31 64 52 141.5t33 178.5q108 26 195 58l29 -24q-69 -169 -129.5 -270.5t-133.5 -187.5l-92 -48z" />
<glyph unicode="&#x201a;" horiz-adv-x="569" d="M45 -266q54 82 76 129q31 64 52 141.5t33 178.5q108 26 195 58l29 -25q-69 -168 -129.5 -269.5t-133.5 -187.5l-92 -49z" />
<glyph unicode="&#x201c;" d="M115 932q69 168 129.5 269.5t133.5 187.5l92 49l30 -24q-54 -82 -76 -129q-31 -64 -52 -141.5t-33 -178.5q-108 -26 -196 -58zM541 932q70 168 130.5 269.5t132.5 187.5l92 49l30 -24q-54 -82 -76 -129q-30 -64 -51.5 -141.5t-33.5 -178.5q-108 -26 -195 -58z" />
<glyph unicode="&#x201d;" d="M57 931q54 82 76 129q31 64 52 141.5t33 178.5q108 25 195 58l29 -25q-69 -168 -129.5 -269.5t-133.5 -187.5l-92 -49zM483 931q54 82 76 129q31 64 52 141.5t33 178.5q108 25 196 58l28 -25q-69 -168 -129.5 -269.5t-133.5 -187.5l-92 -49z" />
<glyph unicode="&#x201e;" d="M57 -250q54 82 76 129q31 64 52 141.5t33 178.5q108 26 195 58l29 -24q-69 -169 -129.5 -270.5t-133.5 -187.5l-92 -49zM483 -250q54 82 76 129q31 64 52 141.5t33 178.5q108 26 196 58l28 -24q-69 -169 -129.5 -270.5t-133.5 -187.5l-92 -49z" />
<glyph unicode="&#x2022;" horiz-adv-x="1241" d="M268 705q0 91 47.5 176t132 130.5t172.5 45.5q89 0 173.5 -45.5t132 -130.5t47.5 -176q0 -92 -47 -175.5t-130.5 -130.5t-175.5 -47q-91 0 -175 47t-130.5 130.5t-46.5 175.5z" />
<glyph unicode="&#x2026;" horiz-adv-x="2048" d="M223 109q0 50 35 85t85 35q49 0 84 -35t35 -85q0 -49 -35 -84t-84 -35q-50 0 -85 34.5t-35 84.5zM904 109q0 50 35 85t85 35q49 0 84.5 -35t35.5 -85q0 -49 -35.5 -84t-84.5 -35q-50 0 -85 34.5t-35 84.5zM1585 109q0 50 35 85t85 35q49 0 84.5 -35t35.5 -85 q0 -49 -35.5 -84t-84.5 -35q-50 0 -85 34.5t-35 84.5z" />
<glyph unicode="&#x202f;" horiz-adv-x="377" />
<glyph unicode="&#x2039;" horiz-adv-x="678" d="M98 456v24q16 16 58 57l132 129q28 28 164 167l50 -34q-57 -74 -153 -207q-54 -74 -84 -123q36 -54 80 -114l157 -214l-50 -34q-53 58 -155 159q-130 128 -199 190z" />
<glyph unicode="&#x203a;" horiz-adv-x="678" d="M129 141l158 216q43 58 79 112q-31 49 -84 123q-96 133 -153 207l50 34q145 -149 173 -176l181 -177v-24q-69 -62 -199 -190q-102 -101 -155 -159z" />
<glyph unicode="&#x205f;" horiz-adv-x="471" />
<glyph unicode="&#x2122;" horiz-adv-x="2005" d="M82 1224v197h693v-197h-47q-5 69 -14 91t-33 36q-36 20 -92 20h-102v-618q0 -73 9 -89t33 -22q10 -3 88 -6v-41h-373v41q77 3 86 6q25 6 34 21.5t9 89.5v618h-105q-61 0 -89.5 -18t-38.5 -46q-6 -18 -10 -83h-48zM911 595v41q59 4 70 9q17 6 24.5 22.5t7.5 72.5v537 q0 59 -8.5 75t-28.5 22q-8 3 -65 6v41h243l264 -626l272 626h235v-41q-59 -3 -70 -8q-17 -7 -24.5 -23t-7.5 -72v-537q0 -60 8.5 -75.5t28.5 -21.5q9 -3 65 -7v-41h-323v41q60 4 71 9q17 6 24 22.5t7 72.5v603l-310 -748h-16l-314 748v-603q0 -60 8.5 -75.5t28.5 -21.5 q8 -3 65 -7v-41h-255z" />
<glyph unicode="&#x25fc;" horiz-adv-x="965" d="M0 0v965h965v-965h-965z" />
</font>
</defs>
</svg>
